<svg width="191" height="48" viewBox="0 0 191 48" fill="none" xmlns="http://www.w3.org/2000/svg">
<path d="M16.3144 2.33669L27.0658 37.3724H22.1447L19.8447 29.242H6.95366L4.6536 37.3724H0L10.6979 2.33669H16.3144ZM13.927 18.269L8.07695 25.1768H18.7214L13.927 18.269Z" fill="#1C2D40"/>
<path d="M75.8576 10.6276C78.853 10.6276 81.1352 11.4478 82.7043 13.0881C84.2733 14.7285 85.0578 17.0998 85.0578 20.2022V25.7117H71.311V28.8676C71.311 30.6862 71.7389 32.0056 72.5947 32.8258C73.4862 33.6103 74.877 34.0026 76.7669 34.0026C78.6212 34.0026 80.9391 33.7173 83.7206 33.1468L83.8276 37.105C80.5112 37.7112 78.1398 38.0143 76.7134 38.0143C73.1831 38.0143 70.6334 37.2476 69.0644 35.7143C67.531 34.1809 66.7643 31.8095 66.7643 28.6001V20.2022C66.7643 17.0998 67.5132 14.7285 69.0109 13.0881C70.5443 11.4478 72.8265 10.6276 75.8576 10.6276ZM75.8576 14.4254C74.4669 14.4254 73.3614 14.8711 72.5412 15.7626C71.7211 16.6184 71.311 17.8665 71.311 19.5069V22.0744L76.0133 21.1345L80.5112 22.0744V19.6674C80.5112 17.9557 80.0833 16.6541 79.2274 15.7626C78.4073 14.8711 77.284 14.4254 75.8576 14.4254Z" fill="#1C2D40"/>
<path d="M102.617 10.6276C104.899 10.6276 106.646 11.4121 107.859 12.9811C109.107 14.5145 109.731 16.7076 109.731 19.5604V37.3724H103.713V19.6674C103.713 16.1014 104.025 14.8533 101.707 14.8533C100.673 14.8533 99.6212 15.2455 98.5514 16.0301C97.4816 16.8146 96.5545 17.8844 95.77 19.2394V37.3724H91.2233V11.2695H95.5025V15.1742C96.4653 13.7122 97.5351 12.5889 98.7119 11.8044C99.9243 11.0198 101.226 10.6276 102.617 10.6276Z" fill="#1C2D40"/>
<path d="M133.299 37.3724H128.966V33.1468C126.827 36.3918 124.384 38.0143 121.638 38.0143C119.427 38.0143 117.734 37.2655 116.557 35.7678C115.38 34.2344 114.792 32.0056 114.792 29.0815V19.5604C114.792 16.7432 115.434 14.5502 116.717 12.9811C118.037 11.4121 119.909 10.6276 122.334 10.6276C123.368 10.6276 124.455 10.895 125.597 11.4299C126.738 11.9292 127.79 12.5532 128.752 13.3021V0.838976H133.299V37.3724ZM123.35 14.6928C122.066 14.6928 121.62 15.1029 120.906 16.0301C120.229 16.9215 119.89 18.2944 119.89 20.1488V28.4397C119.89 32.077 120.462 33.9491 122.708 33.9491C123.778 33.9491 124.83 33.539 125.864 32.7188C126.934 31.863 127.897 30.6684 128.752 29.135V17.3673C128.004 16.5828 127.112 15.9409 126.078 15.4417C125.079 14.9424 124.17 14.6928 123.35 14.6928Z" fill="#1C2D40"/>
<path d="M145.312 11.2695V37.3724H140.766V11.2695H145.312ZM143.012 0.731995C143.975 0.731995 144.706 0.945954 145.205 1.37387C145.74 1.80179 146.007 2.40801 146.007 3.19252V4.74372C146.007 5.52824 145.74 6.13446 145.205 6.56237C144.706 6.95463 143.975 7.15076 143.012 7.15076C142.085 7.15076 141.354 6.95463 140.819 6.56237C140.32 6.13446 140.07 5.52824 140.07 4.74372V3.19252C140.07 2.40801 140.32 1.80179 140.819 1.37387C141.354 0.945954 142.085 0.731995 143.012 0.731995Z" fill="#1C2D40"/>
<path d="M160.068 11.2695H165.082V15.0137H160.068V30.3118C160.068 31.6669 160.068 31.6414 160.068 32.7188C160.068 33.5517 160.375 34.1096 161.552 34.1096C163.05 34.1096 164.512 33.9313 165.938 33.5747L166.045 37.3724C164.476 37.8004 163.05 38.0143 161.766 38.0143C158.913 38.0143 156.827 37.3903 155.508 36.1422C154.224 34.8584 153.582 32.7902 153.582 29.9374V15.0137H149.838V11.2695H153.582L155.293 4.31581H158.129L160.068 11.2695Z" fill="#1C2D40"/>
<path d="M190.418 11.2695L178.436 47.268H173.89L177.313 37.3724L176.306 34.5069L168.166 11.2695H173.141L180.127 27.8207L185.711 11.2695H190.418Z" fill="#1C2D40"/>
<path d="M38.5158 10.6276H43.5297V14.3719H38.5158V29.6699C38.5158 31.025 38.5158 30.9995 38.5158 32.077C38.5158 32.9099 38.8226 33.4677 39.9994 33.4677C41.4971 33.4677 42.9592 33.2894 44.3856 32.9328L44.4925 36.7306C42.9235 37.1585 41.4971 37.3724 40.2134 37.3724C37.3606 37.3724 35.2745 36.7484 33.9551 35.5003C32.6713 34.2165 32.0294 32.1483 32.0294 29.2955V14.3719H28.2852V10.6276H32.0294L33.7399 3.67393H36.5761L38.5158 10.6276Z" fill="#1C2D40"/>
<path d="M56.6641 10.6276H61.678V14.3719H56.6641V29.6699C56.6641 31.025 56.6641 30.9995 56.6641 32.077C56.6641 32.9099 56.9709 33.4677 58.1477 33.4677C59.6454 33.4677 61.1075 33.2894 62.5339 32.9328L62.6408 36.7306C61.0718 37.1585 59.6454 37.3724 58.3617 37.3724C55.5089 37.3724 53.4228 36.7484 52.1034 35.5003C50.8196 34.2165 50.1777 32.1483 50.1777 29.2955V14.3719H46.4334V10.6276H50.1777L51.8882 3.67393H54.7244L56.6641 10.6276Z" fill="#1C2D40"/>
</svg>
