<svg width="361" height="280" viewBox="0 0 361 280" fill="none" xmlns="http://www.w3.org/2000/svg">
<line x1="360" y1="257.5" x2="36" y2="257.5" stroke="#E5E5E5"/>
<line x1="90.5" y1="27" x2="90.5" y2="257" stroke="#E5E5E5"/>
<line y1="-0.5" x2="230.002" y2="-0.5" transform="matrix(0.00429688 0.999991 -0.999994 0.00355115 35 27)" stroke="#E5E5E5"/>
<line x1="360" y1="234.5" x2="36" y2="234.5" stroke="#E5E5E5"/>
<line x1="360" y1="211.5" x2="36" y2="211.5" stroke="#E5E5E5"/>
<line x1="360" y1="188.5" x2="36" y2="188.5" stroke="#E5E5E5"/>
<line x1="360" y1="165.5" x2="36" y2="165.5" stroke="#E5E5E5"/>
<line x1="360" y1="142.5" x2="36" y2="142.5" stroke="#E5E5E5"/>
<line x1="360" y1="119.5" x2="36" y2="119.5" stroke="#E5E5E5"/>
<line x1="360" y1="96.5" x2="36" y2="96.5" stroke="#E5E5E5"/>
<line x1="360" y1="73.5" x2="36" y2="73.5" stroke="#E5E5E5"/>
<line x1="360" y1="50.5" x2="36" y2="50.5" stroke="#E5E5E5"/>
<line x1="360" y1="27.5" x2="36" y2="27.5" stroke="#E5E5E5"/>
<line x1="144.5" y1="27" x2="144.5" y2="257" stroke="#E5E5E5"/>
<line x1="198.5" y1="27" x2="198.5" y2="257" stroke="#E5E5E5"/>
<line x1="252.5" y1="27" x2="252.5" y2="257" stroke="#E5E5E5"/>
<line x1="306.5" y1="27" x2="306.5" y2="257" stroke="#E5E5E5"/>
<line x1="360.5" y1="27" x2="360.5" y2="257" stroke="#E5E5E5"/>
<path d="M46.245 277.11C45.4457 277.11 44.782 276.912 44.254 276.516C43.726 276.12 43.4473 275.541 43.418 274.778C43.418 274.712 43.44 274.657 43.484 274.613C43.528 274.562 43.5867 274.536 43.66 274.536H44.254C44.408 274.536 44.5033 274.62 44.54 274.789C44.584 275.258 44.7637 275.607 45.079 275.834C45.3943 276.061 45.7903 276.175 46.267 276.175C46.817 276.175 47.2387 275.995 47.532 275.636C47.8327 275.269 47.983 274.778 47.983 274.162V270.257H44.078C44.0047 270.257 43.9423 270.235 43.891 270.191C43.847 270.14 43.825 270.077 43.825 270.004V269.553C43.825 269.48 43.847 269.421 43.891 269.377C43.9423 269.326 44.0047 269.3 44.078 269.3H48.819C48.8997 269.3 48.962 269.326 49.006 269.377C49.0573 269.421 49.083 269.483 49.083 269.564V274.184C49.083 275.079 48.83 275.79 48.324 276.318C47.8253 276.846 47.1323 277.11 46.245 277.11ZM52.3377 277.11C51.9784 277.11 51.6447 277.037 51.3367 276.89C51.0287 276.743 50.783 276.545 50.5997 276.296C50.4237 276.039 50.3357 275.757 50.3357 275.449C50.3357 274.965 50.5337 274.569 50.9297 274.261C51.333 273.946 51.8757 273.74 52.5577 273.645L54.1967 273.414V273.095C54.1967 272.347 53.7677 271.973 52.9097 271.973C52.587 271.973 52.323 272.043 52.1177 272.182C51.9124 272.314 51.7584 272.472 51.6557 272.655C51.6337 272.721 51.6044 272.769 51.5677 272.798C51.5384 272.827 51.4944 272.842 51.4357 272.842H50.9627C50.8967 272.842 50.838 272.82 50.7867 272.776C50.7427 272.725 50.7207 272.666 50.7207 272.6C50.728 272.424 50.8087 272.226 50.9627 272.006C51.124 271.779 51.3697 271.584 51.6997 271.423C52.0297 271.254 52.4367 271.17 52.9207 271.17C53.742 271.17 54.3324 271.364 54.6917 271.753C55.051 272.134 55.2307 272.611 55.2307 273.183V276.747C55.2307 276.82 55.205 276.883 55.1537 276.934C55.1097 276.978 55.051 277 54.9777 277H54.4717C54.3984 277 54.336 276.978 54.2847 276.934C54.2407 276.883 54.2187 276.82 54.2187 276.747V276.274C54.0574 276.509 53.8227 276.707 53.5147 276.868C53.2067 277.029 52.8144 277.11 52.3377 277.11ZM52.5687 276.285C53.0454 276.285 53.434 276.131 53.7347 275.823C54.0427 275.508 54.1967 275.057 54.1967 274.47V274.162L52.9207 274.349C52.4 274.422 52.0077 274.547 51.7437 274.723C51.4797 274.892 51.3477 275.108 51.3477 275.372C51.3477 275.665 51.4687 275.893 51.7107 276.054C51.9527 276.208 52.2387 276.285 52.5687 276.285ZM57.065 277C56.9917 277 56.9294 276.978 56.878 276.934C56.834 276.883 56.812 276.82 56.812 276.747V271.533C56.812 271.46 56.834 271.401 56.878 271.357C56.9294 271.306 56.9917 271.28 57.065 271.28H57.582C57.6554 271.28 57.714 271.306 57.758 271.357C57.8094 271.401 57.835 271.46 57.835 271.533V272.017C58.0477 271.746 58.297 271.537 58.583 271.39C58.8764 271.243 59.2394 271.17 59.672 271.17C60.376 271.17 60.9224 271.397 61.311 271.852C61.707 272.299 61.905 272.897 61.905 273.645V276.747C61.905 276.82 61.8794 276.883 61.828 276.934C61.784 276.978 61.7254 277 61.652 277H61.102C61.0287 277 60.9664 276.978 60.915 276.934C60.871 276.883 60.849 276.82 60.849 276.747V273.7C60.849 273.179 60.7207 272.776 60.464 272.49C60.2147 272.204 59.8517 272.061 59.375 272.061C58.913 272.061 58.5464 272.208 58.275 272.501C58.0037 272.787 57.868 273.187 57.868 273.7V276.747C57.868 276.82 57.8424 276.883 57.791 276.934C57.747 276.978 57.6884 277 57.615 277H57.065ZM65.6169 277.11C64.9203 277.11 64.3813 276.886 63.9999 276.439C63.6186 275.984 63.4279 275.383 63.4279 274.635V271.533C63.4279 271.46 63.4499 271.401 63.4939 271.357C63.5453 271.306 63.6076 271.28 63.6809 271.28H64.2309C64.3043 271.28 64.3629 271.306 64.4069 271.357C64.4583 271.401 64.4839 271.46 64.4839 271.533V274.58C64.4839 275.673 64.9606 276.219 65.9139 276.219C66.3759 276.219 66.7426 276.076 67.0139 275.79C67.2853 275.497 67.4209 275.093 67.4209 274.58V271.533C67.4209 271.46 67.4429 271.401 67.4869 271.357C67.5383 271.306 67.6006 271.28 67.6739 271.28H68.2239C68.2973 271.28 68.3559 271.306 68.3999 271.357C68.4439 271.401 68.4659 271.46 68.4659 271.533V276.747C68.4659 276.82 68.4439 276.883 68.3999 276.934C68.3559 276.978 68.2973 277 68.2239 277H67.7069C67.6336 277 67.5713 276.978 67.5199 276.934C67.4759 276.883 67.4539 276.82 67.4539 276.747V276.263C67.2486 276.542 66.9993 276.754 66.7059 276.901C66.4126 277.04 66.0496 277.11 65.6169 277.11ZM71.6951 277.11C71.3358 277.11 71.0021 277.037 70.6941 276.89C70.3861 276.743 70.1405 276.545 69.9571 276.296C69.7811 276.039 69.6931 275.757 69.6931 275.449C69.6931 274.965 69.8911 274.569 70.2871 274.261C70.6905 273.946 71.2331 273.74 71.9151 273.645L73.5541 273.414V273.095C73.5541 272.347 73.1251 271.973 72.2671 271.973C71.9445 271.973 71.6805 272.043 71.4751 272.182C71.2698 272.314 71.1158 272.472 71.0131 272.655C70.9911 272.721 70.9618 272.769 70.9251 272.798C70.8958 272.827 70.8518 272.842 70.7931 272.842H70.3201C70.2541 272.842 70.1955 272.82 70.1441 272.776C70.1001 272.725 70.0781 272.666 70.0781 272.6C70.0855 272.424 70.1661 272.226 70.3201 272.006C70.4815 271.779 70.7271 271.584 71.0571 271.423C71.3871 271.254 71.7941 271.17 72.2781 271.17C73.0995 271.17 73.6898 271.364 74.0491 271.753C74.4085 272.134 74.5881 272.611 74.5881 273.183V276.747C74.5881 276.82 74.5625 276.883 74.5111 276.934C74.4671 276.978 74.4085 277 74.3351 277H73.8291C73.7558 277 73.6935 276.978 73.6421 276.934C73.5981 276.883 73.5761 276.82 73.5761 276.747V276.274C73.4148 276.509 73.1801 276.707 72.8721 276.868C72.5641 277.029 72.1718 277.11 71.6951 277.11ZM71.9261 276.285C72.4028 276.285 72.7915 276.131 73.0921 275.823C73.4001 275.508 73.5541 275.057 73.5541 274.47V274.162L72.2781 274.349C71.7575 274.422 71.3651 274.547 71.1011 274.723C70.8371 274.892 70.7051 275.108 70.7051 275.372C70.7051 275.665 70.8261 275.893 71.0681 276.054C71.3101 276.208 71.5961 276.285 71.9261 276.285ZM76.4225 277C76.3491 277 76.2868 276.978 76.2355 276.934C76.1915 276.883 76.1695 276.82 76.1695 276.747V271.544C76.1695 271.471 76.1915 271.408 76.2355 271.357C76.2868 271.306 76.3491 271.28 76.4225 271.28H76.9285C77.0018 271.28 77.0641 271.306 77.1155 271.357C77.1668 271.408 77.1925 271.471 77.1925 271.544V272.028C77.4931 271.529 78.0065 271.28 78.7325 271.28H79.1615C79.2348 271.28 79.2935 271.306 79.3375 271.357C79.3888 271.401 79.4145 271.46 79.4145 271.533V271.984C79.4145 272.057 79.3888 272.116 79.3375 272.16C79.2935 272.204 79.2348 272.226 79.1615 272.226H78.5015C78.1055 272.226 77.7938 272.343 77.5665 272.578C77.3391 272.805 77.2255 273.117 77.2255 273.513V276.747C77.2255 276.82 77.1998 276.883 77.1485 276.934C77.0971 276.978 77.0348 277 76.9615 277H76.4225ZM81.3492 279.09C81.2905 279.09 81.2392 279.068 81.1952 279.024C81.1512 278.98 81.1292 278.929 81.1292 278.87C81.1292 278.819 81.1475 278.753 81.1842 278.672L82.0312 276.659L79.9302 271.698C79.8935 271.603 79.8752 271.54 79.8752 271.511C79.8752 271.445 79.8972 271.39 79.9412 271.346C79.9852 271.302 80.0402 271.28 80.1062 271.28H80.6452C80.7625 271.28 80.8505 271.342 80.9092 271.467L82.5812 275.471L84.2972 271.467C84.3558 271.342 84.4475 271.28 84.5722 271.28H85.0892C85.1552 271.28 85.2102 271.302 85.2542 271.346C85.2982 271.39 85.3202 271.441 85.3202 271.5C85.3202 271.522 85.3018 271.588 85.2652 271.698L82.1412 278.903C82.0825 279.028 81.9908 279.09 81.8662 279.09H81.3492Z" fill="#878787"/>
<path d="M97.21 277C97.1367 277 97.0743 276.978 97.023 276.934C96.979 276.883 96.957 276.82 96.957 276.747V269.564C96.957 269.483 96.979 269.421 97.023 269.377C97.0743 269.326 97.1367 269.3 97.21 269.3H101.698C101.779 269.3 101.841 269.326 101.885 269.377C101.936 269.421 101.962 269.483 101.962 269.564V270.004C101.962 270.077 101.936 270.14 101.885 270.191C101.841 270.235 101.779 270.257 101.698 270.257H98.024V272.82H101.478C101.559 272.82 101.621 272.846 101.665 272.897C101.716 272.941 101.742 273.003 101.742 273.084V273.524C101.742 273.597 101.716 273.66 101.665 273.711C101.614 273.755 101.551 273.777 101.478 273.777H98.024V276.747C98.024 276.82 97.9983 276.883 97.947 276.934C97.8957 276.978 97.8333 277 97.76 277H97.21ZM105.408 277.11C104.652 277.11 104.047 276.879 103.593 276.417C103.145 275.948 102.9 275.31 102.856 274.503L102.845 274.129L102.856 273.766C102.907 272.974 103.156 272.343 103.604 271.874C104.058 271.405 104.656 271.17 105.397 271.17C106.211 271.17 106.841 271.43 107.289 271.951C107.736 272.464 107.96 273.161 107.96 274.041V274.228C107.96 274.301 107.934 274.364 107.883 274.415C107.839 274.459 107.78 274.481 107.707 274.481H103.901V274.58C103.923 275.057 104.066 275.464 104.33 275.801C104.601 276.131 104.957 276.296 105.397 276.296C105.734 276.296 106.009 276.23 106.222 276.098C106.442 275.959 106.603 275.816 106.706 275.669C106.772 275.581 106.819 275.53 106.849 275.515C106.885 275.493 106.948 275.482 107.036 275.482H107.575C107.641 275.482 107.696 275.5 107.74 275.537C107.784 275.574 107.806 275.625 107.806 275.691C107.806 275.852 107.703 276.047 107.498 276.274C107.3 276.501 107.017 276.699 106.651 276.868C106.291 277.029 105.877 277.11 105.408 277.11ZM106.915 273.722V273.689C106.915 273.183 106.775 272.772 106.497 272.457C106.225 272.134 105.859 271.973 105.397 271.973C104.935 271.973 104.568 272.134 104.297 272.457C104.033 272.772 103.901 273.183 103.901 273.689V273.722H106.915ZM112.102 277.11C111.31 277.11 110.709 276.835 110.298 276.285V276.747C110.298 276.82 110.272 276.883 110.221 276.934C110.177 276.978 110.118 277 110.045 277H109.539C109.466 277 109.403 276.978 109.352 276.934C109.308 276.883 109.286 276.82 109.286 276.747V269.443C109.286 269.37 109.308 269.311 109.352 269.267C109.403 269.216 109.466 269.19 109.539 269.19H110.078C110.151 269.19 110.21 269.216 110.254 269.267C110.298 269.311 110.32 269.37 110.32 269.443V271.973C110.753 271.438 111.347 271.17 112.102 271.17C112.865 271.17 113.44 271.423 113.829 271.929C114.218 272.428 114.427 273.055 114.456 273.81C114.463 273.891 114.467 274.001 114.467 274.14C114.467 274.279 114.463 274.389 114.456 274.47C114.427 275.233 114.218 275.863 113.829 276.362C113.44 276.861 112.865 277.11 112.102 277.11ZM111.871 276.219C112.392 276.219 112.769 276.058 113.004 275.735C113.246 275.412 113.378 274.987 113.4 274.459C113.407 274.386 113.411 274.279 113.411 274.14C113.411 272.754 112.898 272.061 111.871 272.061C111.38 272.061 111.002 272.222 110.738 272.545C110.474 272.868 110.335 273.245 110.32 273.678L110.309 274.107L110.32 274.525C110.342 274.987 110.478 275.387 110.727 275.724C110.984 276.054 111.365 276.219 111.871 276.219ZM116.07 277C115.997 277 115.934 276.978 115.883 276.934C115.839 276.883 115.817 276.82 115.817 276.747V271.544C115.817 271.471 115.839 271.408 115.883 271.357C115.934 271.306 115.997 271.28 116.07 271.28H116.576C116.649 271.28 116.712 271.306 116.763 271.357C116.814 271.408 116.84 271.471 116.84 271.544V272.028C117.141 271.529 117.654 271.28 118.38 271.28H118.809C118.882 271.28 118.941 271.306 118.985 271.357C119.036 271.401 119.062 271.46 119.062 271.533V271.984C119.062 272.057 119.036 272.116 118.985 272.16C118.941 272.204 118.882 272.226 118.809 272.226H118.149C117.753 272.226 117.441 272.343 117.214 272.578C116.987 272.805 116.873 273.117 116.873 273.513V276.747C116.873 276.82 116.847 276.883 116.796 276.934C116.745 276.978 116.682 277 116.609 277H116.07ZM122.13 277.11C121.433 277.11 120.894 276.886 120.513 276.439C120.131 275.984 119.941 275.383 119.941 274.635V271.533C119.941 271.46 119.963 271.401 120.007 271.357C120.058 271.306 120.12 271.28 120.194 271.28H120.744C120.817 271.28 120.876 271.306 120.92 271.357C120.971 271.401 120.997 271.46 120.997 271.533V274.58C120.997 275.673 121.473 276.219 122.427 276.219C122.889 276.219 123.255 276.076 123.527 275.79C123.798 275.497 123.934 275.093 123.934 274.58V271.533C123.934 271.46 123.956 271.401 124 271.357C124.051 271.306 124.113 271.28 124.187 271.28H124.737C124.81 271.28 124.869 271.306 124.913 271.357C124.957 271.401 124.979 271.46 124.979 271.533V276.747C124.979 276.82 124.957 276.883 124.913 276.934C124.869 276.978 124.81 277 124.737 277H124.22C124.146 277 124.084 276.978 124.033 276.934C123.989 276.883 123.967 276.82 123.967 276.747V276.263C123.761 276.542 123.512 276.754 123.219 276.901C122.925 277.04 122.562 277.11 122.13 277.11ZM128.208 277.11C127.848 277.11 127.515 277.037 127.207 276.89C126.899 276.743 126.653 276.545 126.47 276.296C126.294 276.039 126.206 275.757 126.206 275.449C126.206 274.965 126.404 274.569 126.8 274.261C127.203 273.946 127.746 273.74 128.428 273.645L130.067 273.414V273.095C130.067 272.347 129.638 271.973 128.78 271.973C128.457 271.973 128.193 272.043 127.988 272.182C127.782 272.314 127.628 272.472 127.526 272.655C127.504 272.721 127.474 272.769 127.438 272.798C127.408 272.827 127.364 272.842 127.306 272.842H126.833C126.767 272.842 126.708 272.82 126.657 272.776C126.613 272.725 126.591 272.666 126.591 272.6C126.598 272.424 126.679 272.226 126.833 272.006C126.994 271.779 127.24 271.584 127.57 271.423C127.9 271.254 128.307 271.17 128.791 271.17C129.612 271.17 130.202 271.364 130.562 271.753C130.921 272.134 131.101 272.611 131.101 273.183V276.747C131.101 276.82 131.075 276.883 131.024 276.934C130.98 276.978 130.921 277 130.848 277H130.342C130.268 277 130.206 276.978 130.155 276.934C130.111 276.883 130.089 276.82 130.089 276.747V276.274C129.927 276.509 129.693 276.707 129.385 276.868C129.077 277.029 128.684 277.11 128.208 277.11ZM128.439 276.285C128.915 276.285 129.304 276.131 129.605 275.823C129.913 275.508 130.067 275.057 130.067 274.47V274.162L128.791 274.349C128.27 274.422 127.878 274.547 127.614 274.723C127.35 274.892 127.218 275.108 127.218 275.372C127.218 275.665 127.339 275.893 127.581 276.054C127.823 276.208 128.109 276.285 128.439 276.285ZM132.935 277C132.862 277 132.799 276.978 132.748 276.934C132.704 276.883 132.682 276.82 132.682 276.747V271.544C132.682 271.471 132.704 271.408 132.748 271.357C132.799 271.306 132.862 271.28 132.935 271.28H133.441C133.514 271.28 133.577 271.306 133.628 271.357C133.679 271.408 133.705 271.471 133.705 271.544V272.028C134.006 271.529 134.519 271.28 135.245 271.28H135.674C135.747 271.28 135.806 271.306 135.85 271.357C135.901 271.401 135.927 271.46 135.927 271.533V271.984C135.927 272.057 135.901 272.116 135.85 272.16C135.806 272.204 135.747 272.226 135.674 272.226H135.014C134.618 272.226 134.306 272.343 134.079 272.578C133.852 272.805 133.738 273.117 133.738 273.513V276.747C133.738 276.82 133.712 276.883 133.661 276.934C133.61 276.978 133.547 277 133.474 277H132.935ZM137.862 279.09C137.803 279.09 137.752 279.068 137.708 279.024C137.664 278.98 137.642 278.929 137.642 278.87C137.642 278.819 137.66 278.753 137.697 278.672L138.544 276.659L136.443 271.698C136.406 271.603 136.388 271.54 136.388 271.511C136.388 271.445 136.41 271.39 136.454 271.346C136.498 271.302 136.553 271.28 136.619 271.28H137.158C137.275 271.28 137.363 271.342 137.422 271.467L139.094 275.471L140.81 271.467C140.869 271.342 140.96 271.28 141.085 271.28H141.602C141.668 271.28 141.723 271.302 141.767 271.346C141.811 271.39 141.833 271.441 141.833 271.5C141.833 271.522 141.815 271.588 141.778 271.698L138.654 278.903C138.595 279.028 138.504 279.09 138.379 279.09H137.862Z" fill="#878787"/>
<path d="M158.21 277C158.137 277 158.074 276.978 158.023 276.934C157.979 276.883 157.957 276.82 157.957 276.747V269.564C157.957 269.483 157.979 269.421 158.023 269.377C158.074 269.326 158.137 269.3 158.21 269.3H158.76C158.877 269.3 158.973 269.359 159.046 269.476L161.367 273.92L163.71 269.476C163.725 269.432 163.754 269.392 163.798 269.355C163.849 269.318 163.912 269.3 163.985 269.3H164.524C164.605 269.3 164.667 269.326 164.711 269.377C164.762 269.421 164.788 269.483 164.788 269.564V276.747C164.788 276.82 164.762 276.883 164.711 276.934C164.66 276.978 164.597 277 164.524 277H163.985C163.912 277 163.849 276.978 163.798 276.934C163.754 276.883 163.732 276.82 163.732 276.747V271.335L161.895 274.921C161.822 275.075 161.704 275.152 161.543 275.152H161.202C161.041 275.152 160.923 275.075 160.85 274.921L159.002 271.335V276.747C159.002 276.82 158.976 276.883 158.925 276.934C158.881 276.978 158.822 277 158.749 277H158.21ZM168.142 277.11C167.783 277.11 167.449 277.037 167.141 276.89C166.833 276.743 166.588 276.545 166.404 276.296C166.228 276.039 166.14 275.757 166.14 275.449C166.14 274.965 166.338 274.569 166.734 274.261C167.138 273.946 167.68 273.74 168.362 273.645L170.001 273.414V273.095C170.001 272.347 169.572 271.973 168.714 271.973C168.392 271.973 168.128 272.043 167.922 272.182C167.717 272.314 167.563 272.472 167.46 272.655C167.438 272.721 167.409 272.769 167.372 272.798C167.343 272.827 167.299 272.842 167.24 272.842H166.767C166.701 272.842 166.643 272.82 166.591 272.776C166.547 272.725 166.525 272.666 166.525 272.6C166.533 272.424 166.613 272.226 166.767 272.006C166.929 271.779 167.174 271.584 167.504 271.423C167.834 271.254 168.241 271.17 168.725 271.17C169.547 271.17 170.137 271.364 170.496 271.753C170.856 272.134 171.035 272.611 171.035 273.183V276.747C171.035 276.82 171.01 276.883 170.958 276.934C170.914 276.978 170.856 277 170.782 277H170.276C170.203 277 170.141 276.978 170.089 276.934C170.045 276.883 170.023 276.82 170.023 276.747V276.274C169.862 276.509 169.627 276.707 169.319 276.868C169.011 277.029 168.619 277.11 168.142 277.11ZM168.373 276.285C168.85 276.285 169.239 276.131 169.539 275.823C169.847 275.508 170.001 275.057 170.001 274.47V274.162L168.725 274.349C168.205 274.422 167.812 274.547 167.548 274.723C167.284 274.892 167.152 275.108 167.152 275.372C167.152 275.665 167.273 275.893 167.515 276.054C167.757 276.208 168.043 276.285 168.373 276.285ZM172.87 277C172.796 277 172.734 276.978 172.683 276.934C172.639 276.883 172.617 276.82 172.617 276.747V271.544C172.617 271.471 172.639 271.408 172.683 271.357C172.734 271.306 172.796 271.28 172.87 271.28H173.376C173.449 271.28 173.511 271.306 173.563 271.357C173.614 271.408 173.64 271.471 173.64 271.544V272.028C173.94 271.529 174.454 271.28 175.18 271.28H175.609C175.682 271.28 175.741 271.306 175.785 271.357C175.836 271.401 175.862 271.46 175.862 271.533V271.984C175.862 272.057 175.836 272.116 175.785 272.16C175.741 272.204 175.682 272.226 175.609 272.226H174.949C174.553 272.226 174.241 272.343 174.014 272.578C173.786 272.805 173.673 273.117 173.673 273.513V276.747C173.673 276.82 173.647 276.883 173.596 276.934C173.544 276.978 173.482 277 173.409 277H172.87ZM178.998 277.11C178.213 277.11 177.597 276.89 177.15 276.45C176.71 276.003 176.475 275.379 176.446 274.58L176.435 274.14L176.446 273.7C176.475 272.901 176.71 272.281 177.15 271.841C177.597 271.394 178.213 271.17 178.998 271.17C179.526 271.17 179.973 271.265 180.34 271.456C180.707 271.647 180.978 271.881 181.154 272.16C181.337 272.439 181.436 272.717 181.451 272.996C181.458 273.069 181.436 273.128 181.385 273.172C181.334 273.216 181.271 273.238 181.198 273.238H180.67C180.597 273.238 180.542 273.223 180.505 273.194C180.468 273.165 180.432 273.106 180.395 273.018C180.27 272.666 180.094 272.417 179.867 272.27C179.64 272.116 179.354 272.039 179.009 272.039C178.554 272.039 178.191 272.182 177.92 272.468C177.656 272.747 177.513 273.176 177.491 273.755L177.48 274.151L177.491 274.525C177.513 275.112 177.656 275.544 177.92 275.823C178.184 276.102 178.547 276.241 179.009 276.241C179.354 276.241 179.64 276.168 179.867 276.021C180.094 275.867 180.27 275.614 180.395 275.262C180.432 275.174 180.468 275.115 180.505 275.086C180.542 275.049 180.597 275.031 180.67 275.031H181.198C181.271 275.031 181.334 275.057 181.385 275.108C181.436 275.152 181.458 275.211 181.451 275.284C181.436 275.555 181.337 275.834 181.154 276.12C180.978 276.399 180.707 276.633 180.34 276.824C179.981 277.015 179.533 277.11 178.998 277.11ZM183.021 277C182.948 277 182.886 276.978 182.834 276.934C182.79 276.883 182.768 276.82 182.768 276.747V269.443C182.768 269.37 182.79 269.311 182.834 269.267C182.886 269.216 182.948 269.19 183.021 269.19H183.571C183.645 269.19 183.703 269.216 183.747 269.267C183.799 269.311 183.824 269.37 183.824 269.443V272.006C184.037 271.735 184.286 271.529 184.572 271.39C184.858 271.243 185.214 271.17 185.639 271.17C186.343 271.17 186.89 271.397 187.278 271.852C187.674 272.299 187.872 272.897 187.872 273.645V276.747C187.872 276.82 187.847 276.883 187.795 276.934C187.751 276.978 187.693 277 187.619 277H187.069C186.996 277 186.934 276.978 186.882 276.934C186.838 276.883 186.816 276.82 186.816 276.747V273.7C186.816 273.179 186.688 272.776 186.431 272.49C186.182 272.204 185.819 272.061 185.342 272.061C184.88 272.061 184.51 272.208 184.231 272.501C183.96 272.787 183.824 273.187 183.824 273.7V276.747C183.824 276.82 183.799 276.883 183.747 276.934C183.703 276.978 183.645 277 183.571 277H183.021Z" fill="#878787"/>
<path d="M214.44 277C214.381 277 214.33 276.978 214.286 276.934C214.242 276.89 214.22 276.839 214.22 276.78C214.22 276.721 214.224 276.681 214.231 276.659L216.959 269.542C217.018 269.381 217.135 269.3 217.311 269.3H218.059C218.235 269.3 218.352 269.381 218.411 269.542L221.128 276.659L221.15 276.78C221.15 276.839 221.128 276.89 221.084 276.934C221.04 276.978 220.989 277 220.93 277H220.369C220.288 277 220.226 276.982 220.182 276.945C220.138 276.901 220.109 276.857 220.094 276.813L219.489 275.251H215.881L215.276 276.813C215.261 276.857 215.228 276.901 215.177 276.945C215.133 276.982 215.074 277 215.001 277H214.44ZM219.17 274.305L217.685 270.4L216.2 274.305H219.17ZM222.447 279.09C222.374 279.09 222.311 279.064 222.26 279.013C222.216 278.969 222.194 278.91 222.194 278.837V271.533C222.194 271.46 222.216 271.401 222.26 271.357C222.311 271.306 222.374 271.28 222.447 271.28H222.953C223.026 271.28 223.085 271.306 223.129 271.357C223.18 271.401 223.206 271.46 223.206 271.533V272.017C223.617 271.452 224.218 271.17 225.01 271.17C225.78 271.17 226.356 271.412 226.737 271.896C227.126 272.38 227.335 273.003 227.364 273.766C227.371 273.847 227.375 273.971 227.375 274.14C227.375 274.309 227.371 274.433 227.364 274.514C227.335 275.269 227.126 275.893 226.737 276.384C226.348 276.868 225.773 277.11 225.01 277.11C224.247 277.11 223.653 276.835 223.228 276.285V278.837C223.228 278.91 223.206 278.969 223.162 279.013C223.118 279.064 223.059 279.09 222.986 279.09H222.447ZM224.779 276.219C225.3 276.219 225.677 276.058 225.912 275.735C226.154 275.412 226.286 274.987 226.308 274.459C226.315 274.386 226.319 274.279 226.319 274.14C226.319 272.754 225.806 272.061 224.779 272.061C224.273 272.061 223.892 272.23 223.635 272.567C223.386 272.897 223.25 273.293 223.228 273.755L223.217 274.173L223.228 274.602C223.243 275.035 223.382 275.412 223.646 275.735C223.91 276.058 224.288 276.219 224.779 276.219ZM228.989 277C228.916 277 228.853 276.978 228.802 276.934C228.758 276.883 228.736 276.82 228.736 276.747V271.544C228.736 271.471 228.758 271.408 228.802 271.357C228.853 271.306 228.916 271.28 228.989 271.28H229.495C229.568 271.28 229.631 271.306 229.682 271.357C229.733 271.408 229.759 271.471 229.759 271.544V272.028C230.06 271.529 230.573 271.28 231.299 271.28H231.728C231.801 271.28 231.86 271.306 231.904 271.357C231.955 271.401 231.981 271.46 231.981 271.533V271.984C231.981 272.057 231.955 272.116 231.904 272.16C231.86 272.204 231.801 272.226 231.728 272.226H231.068C230.672 272.226 230.36 272.343 230.133 272.578C229.906 272.805 229.792 273.117 229.792 273.513V276.747C229.792 276.82 229.766 276.883 229.715 276.934C229.664 276.978 229.601 277 229.528 277H228.989ZM233.08 270.213C233.006 270.213 232.944 270.191 232.893 270.147C232.849 270.096 232.827 270.033 232.827 269.96V269.366C232.827 269.293 232.849 269.23 232.893 269.179C232.944 269.128 233.006 269.102 233.08 269.102H233.773C233.846 269.102 233.908 269.128 233.96 269.179C234.011 269.23 234.037 269.293 234.037 269.366V269.96C234.037 270.033 234.011 270.096 233.96 270.147C233.908 270.191 233.846 270.213 233.773 270.213H233.08ZM233.168 277C233.094 277 233.032 276.978 232.981 276.934C232.937 276.883 232.915 276.82 232.915 276.747V271.533C232.915 271.46 232.937 271.401 232.981 271.357C233.032 271.306 233.094 271.28 233.168 271.28H233.696C233.769 271.28 233.828 271.306 233.872 271.357C233.923 271.401 233.949 271.46 233.949 271.533V276.747C233.949 276.82 233.923 276.883 233.872 276.934C233.828 276.978 233.769 277 233.696 277H233.168ZM235.843 277C235.769 277 235.707 276.978 235.656 276.934C235.612 276.883 235.59 276.82 235.59 276.747V269.443C235.59 269.37 235.612 269.311 235.656 269.267C235.707 269.216 235.769 269.19 235.843 269.19H236.36C236.433 269.19 236.492 269.216 236.536 269.267C236.587 269.311 236.613 269.37 236.613 269.443V276.747C236.613 276.82 236.587 276.883 236.536 276.934C236.492 276.978 236.433 277 236.36 277H235.843Z" fill="#878787"/>
<path d="M270.21 277C270.137 277 270.074 276.978 270.023 276.934C269.979 276.883 269.957 276.82 269.957 276.747V269.564C269.957 269.483 269.979 269.421 270.023 269.377C270.074 269.326 270.137 269.3 270.21 269.3H270.76C270.877 269.3 270.973 269.359 271.046 269.476L273.367 273.92L275.71 269.476C275.725 269.432 275.754 269.392 275.798 269.355C275.849 269.318 275.912 269.3 275.985 269.3H276.524C276.605 269.3 276.667 269.326 276.711 269.377C276.762 269.421 276.788 269.483 276.788 269.564V276.747C276.788 276.82 276.762 276.883 276.711 276.934C276.66 276.978 276.597 277 276.524 277H275.985C275.912 277 275.849 276.978 275.798 276.934C275.754 276.883 275.732 276.82 275.732 276.747V271.335L273.895 274.921C273.822 275.075 273.704 275.152 273.543 275.152H273.202C273.041 275.152 272.923 275.075 272.85 274.921L271.002 271.335V276.747C271.002 276.82 270.976 276.883 270.925 276.934C270.881 276.978 270.822 277 270.749 277H270.21ZM280.142 277.11C279.783 277.11 279.449 277.037 279.141 276.89C278.833 276.743 278.588 276.545 278.404 276.296C278.228 276.039 278.14 275.757 278.14 275.449C278.14 274.965 278.338 274.569 278.734 274.261C279.138 273.946 279.68 273.74 280.362 273.645L282.001 273.414V273.095C282.001 272.347 281.572 271.973 280.714 271.973C280.392 271.973 280.128 272.043 279.922 272.182C279.717 272.314 279.563 272.472 279.46 272.655C279.438 272.721 279.409 272.769 279.372 272.798C279.343 272.827 279.299 272.842 279.24 272.842H278.767C278.701 272.842 278.643 272.82 278.591 272.776C278.547 272.725 278.525 272.666 278.525 272.6C278.533 272.424 278.613 272.226 278.767 272.006C278.929 271.779 279.174 271.584 279.504 271.423C279.834 271.254 280.241 271.17 280.725 271.17C281.547 271.17 282.137 271.364 282.496 271.753C282.856 272.134 283.035 272.611 283.035 273.183V276.747C283.035 276.82 283.01 276.883 282.958 276.934C282.914 276.978 282.856 277 282.782 277H282.276C282.203 277 282.141 276.978 282.089 276.934C282.045 276.883 282.023 276.82 282.023 276.747V276.274C281.862 276.509 281.627 276.707 281.319 276.868C281.011 277.029 280.619 277.11 280.142 277.11ZM280.373 276.285C280.85 276.285 281.239 276.131 281.539 275.823C281.847 275.508 282.001 275.057 282.001 274.47V274.162L280.725 274.349C280.205 274.422 279.812 274.547 279.548 274.723C279.284 274.892 279.152 275.108 279.152 275.372C279.152 275.665 279.273 275.893 279.515 276.054C279.757 276.208 280.043 276.285 280.373 276.285ZM285.5 279.09C285.441 279.09 285.39 279.068 285.346 279.024C285.302 278.98 285.28 278.929 285.28 278.87C285.28 278.819 285.298 278.753 285.335 278.672L286.182 276.659L284.081 271.698C284.044 271.603 284.026 271.54 284.026 271.511C284.026 271.445 284.048 271.39 284.092 271.346C284.136 271.302 284.191 271.28 284.257 271.28H284.796C284.913 271.28 285.001 271.342 285.06 271.467L286.732 275.471L288.448 271.467C288.506 271.342 288.598 271.28 288.723 271.28H289.24C289.306 271.28 289.361 271.302 289.405 271.346C289.449 271.39 289.471 271.441 289.471 271.5C289.471 271.522 289.452 271.588 289.416 271.698L286.292 278.903C286.233 279.028 286.141 279.09 286.017 279.09H285.5Z" fill="#878787"/>
<path d="M324.245 277.11C323.446 277.11 322.782 276.912 322.254 276.516C321.726 276.12 321.447 275.541 321.418 274.778C321.418 274.712 321.44 274.657 321.484 274.613C321.528 274.562 321.587 274.536 321.66 274.536H322.254C322.408 274.536 322.503 274.62 322.54 274.789C322.584 275.258 322.764 275.607 323.079 275.834C323.394 276.061 323.79 276.175 324.267 276.175C324.817 276.175 325.239 275.995 325.532 275.636C325.833 275.269 325.983 274.778 325.983 274.162V270.257H322.078C322.005 270.257 321.942 270.235 321.891 270.191C321.847 270.14 321.825 270.077 321.825 270.004V269.553C321.825 269.48 321.847 269.421 321.891 269.377C321.942 269.326 322.005 269.3 322.078 269.3H326.819C326.9 269.3 326.962 269.326 327.006 269.377C327.057 269.421 327.083 269.483 327.083 269.564V274.184C327.083 275.079 326.83 275.79 326.324 276.318C325.825 276.846 325.132 277.11 324.245 277.11ZM330.877 277.11C330.18 277.11 329.641 276.886 329.26 276.439C328.878 275.984 328.688 275.383 328.688 274.635V271.533C328.688 271.46 328.71 271.401 328.754 271.357C328.805 271.306 328.867 271.28 328.941 271.28H329.491C329.564 271.28 329.623 271.306 329.667 271.357C329.718 271.401 329.744 271.46 329.744 271.533V274.58C329.744 275.673 330.22 276.219 331.174 276.219C331.636 276.219 332.002 276.076 332.274 275.79C332.545 275.497 332.681 275.093 332.681 274.58V271.533C332.681 271.46 332.703 271.401 332.747 271.357C332.798 271.306 332.86 271.28 332.934 271.28H333.484C333.557 271.28 333.616 271.306 333.66 271.357C333.704 271.401 333.726 271.46 333.726 271.533V276.747C333.726 276.82 333.704 276.883 333.66 276.934C333.616 276.978 333.557 277 333.484 277H332.967C332.893 277 332.831 276.978 332.78 276.934C332.736 276.883 332.714 276.82 332.714 276.747V276.263C332.508 276.542 332.259 276.754 331.966 276.901C331.672 277.04 331.309 277.11 330.877 277.11ZM335.613 277C335.54 277 335.477 276.978 335.426 276.934C335.382 276.883 335.36 276.82 335.36 276.747V271.533C335.36 271.46 335.382 271.401 335.426 271.357C335.477 271.306 335.54 271.28 335.613 271.28H336.13C336.203 271.28 336.262 271.306 336.306 271.357C336.357 271.401 336.383 271.46 336.383 271.533V272.017C336.596 271.746 336.845 271.537 337.131 271.39C337.424 271.243 337.787 271.17 338.22 271.17C338.924 271.17 339.47 271.397 339.859 271.852C340.255 272.299 340.453 272.897 340.453 273.645V276.747C340.453 276.82 340.427 276.883 340.376 276.934C340.332 276.978 340.273 277 340.2 277H339.65C339.577 277 339.514 276.978 339.463 276.934C339.419 276.883 339.397 276.82 339.397 276.747V273.7C339.397 273.179 339.269 272.776 339.012 272.49C338.763 272.204 338.4 272.061 337.923 272.061C337.461 272.061 337.094 272.208 336.823 272.501C336.552 272.787 336.416 273.187 336.416 273.7V276.747C336.416 276.82 336.39 276.883 336.339 276.934C336.295 276.978 336.236 277 336.163 277H335.613ZM344.319 277.11C343.563 277.11 342.958 276.879 342.504 276.417C342.056 275.948 341.811 275.31 341.767 274.503L341.756 274.129L341.767 273.766C341.818 272.974 342.067 272.343 342.515 271.874C342.969 271.405 343.567 271.17 344.308 271.17C345.122 271.17 345.752 271.43 346.2 271.951C346.647 272.464 346.871 273.161 346.871 274.041V274.228C346.871 274.301 346.845 274.364 346.794 274.415C346.75 274.459 346.691 274.481 346.618 274.481H342.812V274.58C342.834 275.057 342.977 275.464 343.241 275.801C343.512 276.131 343.868 276.296 344.308 276.296C344.645 276.296 344.92 276.23 345.133 276.098C345.353 275.959 345.514 275.816 345.617 275.669C345.683 275.581 345.73 275.53 345.76 275.515C345.796 275.493 345.859 275.482 345.947 275.482H346.486C346.552 275.482 346.607 275.5 346.651 275.537C346.695 275.574 346.717 275.625 346.717 275.691C346.717 275.852 346.614 276.047 346.409 276.274C346.211 276.501 345.928 276.699 345.562 276.868C345.202 277.029 344.788 277.11 344.319 277.11ZM345.826 273.722V273.689C345.826 273.183 345.686 272.772 345.408 272.457C345.136 272.134 344.77 271.973 344.308 271.973C343.846 271.973 343.479 272.134 343.208 272.457C342.944 272.772 342.812 273.183 342.812 273.689V273.722H345.826Z" fill="#878787"/>
<path d="M9.278 198.11C8.69867 198.11 8.19633 198.018 7.771 197.835C7.353 197.644 7.034 197.399 6.814 197.098C6.60133 196.797 6.48767 196.482 6.473 196.152C6.473 196.086 6.495 196.035 6.539 195.998C6.583 195.954 6.638 195.932 6.704 195.932H7.243C7.397 195.932 7.49967 196.013 7.551 196.174C7.64633 196.541 7.85167 196.801 8.167 196.955C8.48233 197.102 8.85267 197.175 9.278 197.175C9.79867 197.175 10.213 197.054 10.521 196.812C10.829 196.563 10.983 196.207 10.983 195.745C10.983 194.858 10.444 194.414 9.366 194.414H8.321C8.24767 194.414 8.18533 194.392 8.134 194.348C8.09 194.297 8.068 194.234 8.068 194.161V193.864C8.068 193.761 8.10833 193.662 8.189 193.567L10.323 191.235H7.078C7.00467 191.235 6.94233 191.213 6.891 191.169C6.847 191.118 6.825 191.055 6.825 190.982V190.564C6.825 190.491 6.847 190.428 6.891 190.377C6.94233 190.326 7.00467 190.3 7.078 190.3H11.467C11.5477 190.3 11.61 190.326 11.654 190.377C11.7053 190.421 11.731 190.483 11.731 190.564V190.96C11.731 191.048 11.6907 191.132 11.61 191.213L9.487 193.578L9.663 193.589C10.411 193.611 11.0013 193.805 11.434 194.172C11.8667 194.539 12.083 195.074 12.083 195.778C12.083 196.255 11.962 196.669 11.72 197.021C11.478 197.373 11.1443 197.644 10.719 197.835C10.2937 198.018 9.81333 198.11 9.278 198.11ZM16.0934 198.11C15.1474 198.11 14.4544 197.835 14.0144 197.285C13.5744 196.735 13.3398 196.013 13.3104 195.118C13.3031 194.92 13.2994 194.601 13.2994 194.161C13.2994 193.706 13.3031 193.376 13.3104 193.171C13.3324 192.291 13.5671 191.576 14.0144 191.026C14.4618 190.469 15.1548 190.19 16.0934 190.19C17.0394 190.19 17.7361 190.469 18.1834 191.026C18.6308 191.576 18.8654 192.291 18.8874 193.171C18.9021 193.582 18.9094 193.912 18.9094 194.161C18.9094 194.403 18.9021 194.722 18.8874 195.118C18.8581 196.013 18.6234 196.735 18.1834 197.285C17.7434 197.835 17.0468 198.11 16.0934 198.11ZM16.0934 197.164C16.6434 197.164 17.0578 196.981 17.3364 196.614C17.6224 196.247 17.7728 195.73 17.7874 195.063C17.8021 194.638 17.8094 194.33 17.8094 194.139C17.8094 193.934 17.8021 193.633 17.7874 193.237C17.7728 192.577 17.6261 192.06 17.3474 191.686C17.0688 191.312 16.6508 191.125 16.0934 191.125C15.5434 191.125 15.1254 191.312 14.8394 191.686C14.5608 192.06 14.4141 192.577 14.3994 193.237L14.3884 194.139L14.3994 195.063C14.4141 195.73 14.5608 196.247 14.8394 196.614C15.1254 196.981 15.5434 197.164 16.0934 197.164ZM21.7119 194.161C21.2352 194.161 20.8575 194.036 20.5789 193.787C20.3075 193.53 20.1572 193.178 20.1279 192.731C20.1205 192.606 20.1169 192.445 20.1169 192.247C20.1169 192.034 20.1205 191.862 20.1279 191.73C20.1499 191.275 20.2929 190.916 20.5569 190.652C20.8282 190.381 21.2132 190.245 21.7119 190.245C22.2105 190.245 22.5919 190.381 22.8559 190.652C23.1272 190.916 23.2739 191.275 23.2959 191.73C23.3105 192.023 23.3179 192.21 23.3179 192.291C23.3179 192.364 23.3105 192.511 23.2959 192.731C23.2739 193.178 23.1235 193.53 22.8449 193.787C22.5662 194.036 22.1885 194.161 21.7119 194.161ZM20.7879 198C20.7219 198 20.6669 197.982 20.6229 197.945C20.5789 197.901 20.5569 197.846 20.5569 197.78C20.5569 197.736 20.5715 197.696 20.6009 197.659L26.0349 190.509C26.0935 190.428 26.1449 190.373 26.1889 190.344C26.2402 190.315 26.3099 190.3 26.3979 190.3H26.7609C26.8342 190.3 26.8892 190.322 26.9259 190.366C26.9699 190.403 26.9919 190.454 26.9919 190.52C26.9919 190.564 26.9772 190.604 26.9479 190.641L21.5249 197.791C21.4662 197.872 21.4112 197.927 21.3599 197.956C21.3159 197.985 21.2462 198 21.1509 198H20.7879ZM21.7119 193.479C21.9759 193.479 22.1665 193.402 22.2839 193.248C22.4085 193.094 22.4819 192.907 22.5039 192.687C22.5185 192.423 22.5259 192.269 22.5259 192.225C22.5259 192.159 22.5185 192.009 22.5039 191.774C22.4892 191.547 22.4159 191.356 22.2839 191.202C22.1592 191.048 21.9685 190.971 21.7119 190.971C21.4552 190.971 21.2645 191.048 21.1399 191.202C21.0152 191.356 20.9455 191.547 20.9309 191.774C20.9235 191.891 20.9199 192.042 20.9199 192.225C20.9199 192.401 20.9235 192.555 20.9309 192.687C20.9529 192.914 21.0225 193.105 21.1399 193.259C21.2645 193.406 21.4552 193.479 21.7119 193.479ZM25.8259 198.066C25.3492 198.066 24.9715 197.934 24.6929 197.67C24.4215 197.399 24.2712 197.039 24.2419 196.592C24.2345 196.467 24.2309 196.306 24.2309 196.108C24.2309 195.895 24.2345 195.723 24.2419 195.591C24.2712 195.136 24.4179 194.777 24.6819 194.513C24.9532 194.242 25.3345 194.106 25.8259 194.106C26.3245 194.106 26.7059 194.242 26.9699 194.513C27.2412 194.777 27.3915 195.136 27.4209 195.591C27.4355 195.855 27.4429 196.027 27.4429 196.108C27.4429 196.181 27.4355 196.343 27.4209 196.592C27.3915 197.039 27.2375 197.399 26.9589 197.67C26.6802 197.934 26.3025 198.066 25.8259 198.066ZM25.8259 197.34C26.0899 197.34 26.2805 197.263 26.3979 197.109C26.5225 196.955 26.5959 196.768 26.6179 196.548C26.6325 196.284 26.6399 196.13 26.6399 196.086C26.6399 196.02 26.6325 195.87 26.6179 195.635C26.6032 195.408 26.5335 195.217 26.4089 195.063C26.2842 194.909 26.0899 194.832 25.8259 194.832C25.5692 194.832 25.3785 194.909 25.2539 195.063C25.1292 195.217 25.0595 195.408 25.0449 195.635C25.0375 195.752 25.0339 195.903 25.0339 196.086C25.0339 196.262 25.0375 196.416 25.0449 196.548C25.0669 196.768 25.1365 196.955 25.2539 197.109C25.3785 197.263 25.5692 197.34 25.8259 197.34Z" fill="#878787"/>
<path d="M6.792 221C6.71867 221 6.65633 220.978 6.605 220.934C6.561 220.883 6.539 220.82 6.539 220.747V220.395C6.539 220.226 6.63067 220.065 6.814 219.911L9.146 217.579C9.71067 217.11 10.0993 216.728 10.312 216.435C10.5247 216.134 10.631 215.819 10.631 215.489C10.631 215.064 10.51 214.73 10.268 214.488C10.0333 214.246 9.68867 214.125 9.234 214.125C8.80867 214.125 8.46767 214.253 8.211 214.51C7.95433 214.759 7.79667 215.093 7.738 215.511C7.72333 215.599 7.68667 215.665 7.628 215.709C7.57667 215.746 7.518 215.764 7.452 215.764H6.88C6.814 215.764 6.759 215.746 6.715 215.709C6.671 215.665 6.649 215.614 6.649 215.555C6.66367 215.159 6.77 214.781 6.968 214.422C7.166 214.055 7.45567 213.758 7.837 213.531C8.22567 213.296 8.69133 213.179 9.234 213.179C10.0627 213.179 10.686 213.395 11.104 213.828C11.5293 214.253 11.742 214.796 11.742 215.456C11.742 215.918 11.6247 216.336 11.39 216.71C11.1627 217.077 10.807 217.473 10.323 217.898L8.211 220.043H11.643C11.7237 220.043 11.786 220.069 11.83 220.12C11.8813 220.164 11.907 220.223 11.907 220.296V220.747C11.907 220.82 11.8813 220.883 11.83 220.934C11.7787 220.978 11.7163 221 11.643 221H6.792ZM15.9431 221.11C14.9971 221.11 14.3041 220.835 13.8641 220.285C13.4241 219.735 13.1894 219.013 13.1601 218.118C13.1527 217.92 13.1491 217.601 13.1491 217.161C13.1491 216.706 13.1527 216.376 13.1601 216.171C13.1821 215.291 13.4167 214.576 13.8641 214.026C14.3114 213.469 15.0044 213.19 15.9431 213.19C16.8891 213.19 17.5857 213.469 18.0331 214.026C18.4804 214.576 18.7151 215.291 18.7371 216.171C18.7517 216.582 18.7591 216.912 18.7591 217.161C18.7591 217.403 18.7517 217.722 18.7371 218.118C18.7077 219.013 18.4731 219.735 18.0331 220.285C17.5931 220.835 16.8964 221.11 15.9431 221.11ZM15.9431 220.164C16.4931 220.164 16.9074 219.981 17.1861 219.614C17.4721 219.247 17.6224 218.73 17.6371 218.063C17.6517 217.638 17.6591 217.33 17.6591 217.139C17.6591 216.934 17.6517 216.633 17.6371 216.237C17.6224 215.577 17.4757 215.06 17.1971 214.686C16.9184 214.312 16.5004 214.125 15.9431 214.125C15.3931 214.125 14.9751 214.312 14.6891 214.686C14.4104 215.06 14.2637 215.577 14.2491 216.237L14.2381 217.139L14.2491 218.063C14.2637 218.73 14.4104 219.247 14.6891 219.614C14.9751 219.981 15.3931 220.164 15.9431 220.164ZM21.5615 217.161C21.0848 217.161 20.7071 217.036 20.4285 216.787C20.1571 216.53 20.0068 216.178 19.9775 215.731C19.9701 215.606 19.9665 215.445 19.9665 215.247C19.9665 215.034 19.9701 214.862 19.9775 214.73C19.9995 214.275 20.1425 213.916 20.4065 213.652C20.6778 213.381 21.0628 213.245 21.5615 213.245C22.0601 213.245 22.4415 213.381 22.7055 213.652C22.9768 213.916 23.1235 214.275 23.1455 214.73C23.1601 215.023 23.1675 215.21 23.1675 215.291C23.1675 215.364 23.1601 215.511 23.1455 215.731C23.1235 216.178 22.9731 216.53 22.6945 216.787C22.4158 217.036 22.0381 217.161 21.5615 217.161ZM20.6375 221C20.5715 221 20.5165 220.982 20.4725 220.945C20.4285 220.901 20.4065 220.846 20.4065 220.78C20.4065 220.736 20.4211 220.696 20.4505 220.659L25.8845 213.509C25.9431 213.428 25.9945 213.373 26.0385 213.344C26.0898 213.315 26.1595 213.3 26.2475 213.3H26.6105C26.6838 213.3 26.7388 213.322 26.7755 213.366C26.8195 213.403 26.8415 213.454 26.8415 213.52C26.8415 213.564 26.8268 213.604 26.7975 213.641L21.3745 220.791C21.3158 220.872 21.2608 220.927 21.2095 220.956C21.1655 220.985 21.0958 221 21.0005 221H20.6375ZM21.5615 216.479C21.8255 216.479 22.0161 216.402 22.1335 216.248C22.2581 216.094 22.3315 215.907 22.3535 215.687C22.3681 215.423 22.3755 215.269 22.3755 215.225C22.3755 215.159 22.3681 215.009 22.3535 214.774C22.3388 214.547 22.2655 214.356 22.1335 214.202C22.0088 214.048 21.8181 213.971 21.5615 213.971C21.3048 213.971 21.1141 214.048 20.9895 214.202C20.8648 214.356 20.7951 214.547 20.7805 214.774C20.7731 214.891 20.7695 215.042 20.7695 215.225C20.7695 215.401 20.7731 215.555 20.7805 215.687C20.8025 215.914 20.8721 216.105 20.9895 216.259C21.1141 216.406 21.3048 216.479 21.5615 216.479ZM25.6755 221.066C25.1988 221.066 24.8211 220.934 24.5425 220.67C24.2711 220.399 24.1208 220.039 24.0915 219.592C24.0841 219.467 24.0805 219.306 24.0805 219.108C24.0805 218.895 24.0841 218.723 24.0915 218.591C24.1208 218.136 24.2675 217.777 24.5315 217.513C24.8028 217.242 25.1841 217.106 25.6755 217.106C26.1741 217.106 26.5555 217.242 26.8195 217.513C27.0908 217.777 27.2411 218.136 27.2705 218.591C27.2851 218.855 27.2925 219.027 27.2925 219.108C27.2925 219.181 27.2851 219.343 27.2705 219.592C27.2411 220.039 27.0871 220.399 26.8085 220.67C26.5298 220.934 26.1521 221.066 25.6755 221.066ZM25.6755 220.34C25.9395 220.34 26.1301 220.263 26.2475 220.109C26.3721 219.955 26.4455 219.768 26.4675 219.548C26.4821 219.284 26.4895 219.13 26.4895 219.086C26.4895 219.02 26.4821 218.87 26.4675 218.635C26.4528 218.408 26.3831 218.217 26.2585 218.063C26.1338 217.909 25.9395 217.832 25.6755 217.832C25.4188 217.832 25.2281 217.909 25.1035 218.063C24.9788 218.217 24.9091 218.408 24.8945 218.635C24.8871 218.752 24.8835 218.903 24.8835 219.086C24.8835 219.262 24.8871 219.416 24.8945 219.548C24.9165 219.768 24.9861 219.955 25.1035 220.109C25.2281 220.263 25.4188 220.34 25.6755 220.34Z" fill="#878787"/>
<path d="M10.036 244C9.96267 244 9.90033 243.978 9.849 243.934C9.805 243.883 9.783 243.82 9.783 243.747V237.587L7.957 238.995C7.90567 239.039 7.85067 239.061 7.792 239.061C7.726 239.061 7.66367 239.024 7.605 238.951L7.319 238.588C7.28233 238.537 7.264 238.485 7.264 238.434C7.264 238.346 7.30067 238.276 7.374 238.225L9.772 236.377C9.85267 236.326 9.948 236.3 10.058 236.3H10.619C10.6923 236.3 10.751 236.326 10.795 236.377C10.8463 236.421 10.872 236.48 10.872 236.553V243.747C10.872 243.82 10.8463 243.883 10.795 243.934C10.751 243.978 10.6923 244 10.619 244H10.036ZM15.1921 244.11C14.2461 244.11 13.5531 243.835 13.1131 243.285C12.6731 242.735 12.4384 242.013 12.4091 241.118C12.4017 240.92 12.3981 240.601 12.3981 240.161C12.3981 239.706 12.4017 239.376 12.4091 239.171C12.4311 238.291 12.6657 237.576 13.1131 237.026C13.5604 236.469 14.2534 236.19 15.1921 236.19C16.1381 236.19 16.8347 236.469 17.2821 237.026C17.7294 237.576 17.9641 238.291 17.9861 239.171C18.0007 239.582 18.0081 239.912 18.0081 240.161C18.0081 240.403 18.0007 240.722 17.9861 241.118C17.9567 242.013 17.7221 242.735 17.2821 243.285C16.8421 243.835 16.1454 244.11 15.1921 244.11ZM15.1921 243.164C15.7421 243.164 16.1564 242.981 16.4351 242.614C16.7211 242.247 16.8714 241.73 16.8861 241.063C16.9007 240.638 16.9081 240.33 16.9081 240.139C16.9081 239.934 16.9007 239.633 16.8861 239.237C16.8714 238.577 16.7247 238.06 16.4461 237.686C16.1674 237.312 15.7494 237.125 15.1921 237.125C14.6421 237.125 14.2241 237.312 13.9381 237.686C13.6594 238.06 13.5127 238.577 13.4981 239.237L13.4871 240.139L13.4981 241.063C13.5127 241.73 13.6594 242.247 13.9381 242.614C14.2241 242.981 14.6421 243.164 15.1921 243.164ZM20.8105 240.161C20.3338 240.161 19.9562 240.036 19.6775 239.787C19.4062 239.53 19.2558 239.178 19.2265 238.731C19.2192 238.606 19.2155 238.445 19.2155 238.247C19.2155 238.034 19.2192 237.862 19.2265 237.73C19.2485 237.275 19.3915 236.916 19.6555 236.652C19.9268 236.381 20.3118 236.245 20.8105 236.245C21.3092 236.245 21.6905 236.381 21.9545 236.652C22.2258 236.916 22.3725 237.275 22.3945 237.73C22.4092 238.023 22.4165 238.21 22.4165 238.291C22.4165 238.364 22.4092 238.511 22.3945 238.731C22.3725 239.178 22.2222 239.53 21.9435 239.787C21.6648 240.036 21.2872 240.161 20.8105 240.161ZM19.8865 244C19.8205 244 19.7655 243.982 19.7215 243.945C19.6775 243.901 19.6555 243.846 19.6555 243.78C19.6555 243.736 19.6702 243.696 19.6995 243.659L25.1335 236.509C25.1922 236.428 25.2435 236.373 25.2875 236.344C25.3388 236.315 25.4085 236.3 25.4965 236.3H25.8595C25.9328 236.3 25.9878 236.322 26.0245 236.366C26.0685 236.403 26.0905 236.454 26.0905 236.52C26.0905 236.564 26.0758 236.604 26.0465 236.641L20.6235 243.791C20.5648 243.872 20.5098 243.927 20.4585 243.956C20.4145 243.985 20.3448 244 20.2495 244H19.8865ZM20.8105 239.479C21.0745 239.479 21.2652 239.402 21.3825 239.248C21.5072 239.094 21.5805 238.907 21.6025 238.687C21.6172 238.423 21.6245 238.269 21.6245 238.225C21.6245 238.159 21.6172 238.009 21.6025 237.774C21.5878 237.547 21.5145 237.356 21.3825 237.202C21.2578 237.048 21.0672 236.971 20.8105 236.971C20.5538 236.971 20.3632 237.048 20.2385 237.202C20.1138 237.356 20.0442 237.547 20.0295 237.774C20.0222 237.891 20.0185 238.042 20.0185 238.225C20.0185 238.401 20.0222 238.555 20.0295 238.687C20.0515 238.914 20.1212 239.105 20.2385 239.259C20.3632 239.406 20.5538 239.479 20.8105 239.479ZM24.9245 244.066C24.4478 244.066 24.0702 243.934 23.7915 243.67C23.5202 243.399 23.3698 243.039 23.3405 242.592C23.3332 242.467 23.3295 242.306 23.3295 242.108C23.3295 241.895 23.3332 241.723 23.3405 241.591C23.3698 241.136 23.5165 240.777 23.7805 240.513C24.0518 240.242 24.4332 240.106 24.9245 240.106C25.4232 240.106 25.8045 240.242 26.0685 240.513C26.3398 240.777 26.4902 241.136 26.5195 241.591C26.5342 241.855 26.5415 242.027 26.5415 242.108C26.5415 242.181 26.5342 242.343 26.5195 242.592C26.4902 243.039 26.3362 243.399 26.0575 243.67C25.7788 243.934 25.4012 244.066 24.9245 244.066ZM24.9245 243.34C25.1885 243.34 25.3792 243.263 25.4965 243.109C25.6212 242.955 25.6945 242.768 25.7165 242.548C25.7312 242.284 25.7385 242.13 25.7385 242.086C25.7385 242.02 25.7312 241.87 25.7165 241.635C25.7018 241.408 25.6322 241.217 25.5075 241.063C25.3828 240.909 25.1885 240.832 24.9245 240.832C24.6678 240.832 24.4772 240.909 24.3525 241.063C24.2278 241.217 24.1582 241.408 24.1435 241.635C24.1362 241.752 24.1325 241.903 24.1325 242.086C24.1325 242.262 24.1362 242.416 24.1435 242.548C24.1655 242.768 24.2352 242.955 24.3525 243.109C24.4772 243.263 24.6678 243.34 24.9245 243.34Z" fill="#878787"/>
<path d="M9.411 175C9.33767 175 9.27533 174.978 9.224 174.934C9.18 174.883 9.158 174.82 9.158 174.747V173.163H5.594C5.52067 173.163 5.45833 173.141 5.407 173.097C5.363 173.046 5.341 172.983 5.341 172.91V172.47C5.341 172.36 5.38133 172.25 5.462 172.14L8.762 167.487C8.79867 167.428 8.85367 167.384 8.927 167.355C9.00033 167.318 9.081 167.3 9.169 167.3H9.961C10.0343 167.3 10.093 167.326 10.137 167.377C10.1883 167.421 10.214 167.48 10.214 167.553V172.206H11.204C11.2773 172.206 11.3397 172.232 11.391 172.283C11.4423 172.327 11.468 172.386 11.468 172.459V172.91C11.468 172.983 11.4423 173.046 11.391 173.097C11.347 173.141 11.2883 173.163 11.215 173.163H10.214V174.747C10.214 174.82 10.1883 174.883 10.137 174.934C10.093 174.978 10.0343 175 9.961 175H9.411ZM9.169 172.228V168.455L6.518 172.228H9.169ZM15.319 175.11C14.373 175.11 13.68 174.835 13.24 174.285C12.8 173.735 12.5654 173.013 12.536 172.118C12.5287 171.92 12.525 171.601 12.525 171.161C12.525 170.706 12.5287 170.376 12.536 170.171C12.558 169.291 12.7927 168.576 13.24 168.026C13.6874 167.469 14.3804 167.19 15.319 167.19C16.265 167.19 16.9617 167.469 17.409 168.026C17.8564 168.576 18.091 169.291 18.113 170.171C18.1277 170.582 18.135 170.912 18.135 171.161C18.135 171.403 18.1277 171.722 18.113 172.118C18.0837 173.013 17.849 173.735 17.409 174.285C16.969 174.835 16.2724 175.11 15.319 175.11ZM15.319 174.164C15.869 174.164 16.2834 173.981 16.562 173.614C16.848 173.247 16.9984 172.73 17.013 172.063C17.0277 171.638 17.035 171.33 17.035 171.139C17.035 170.934 17.0277 170.633 17.013 170.237C16.9984 169.577 16.8517 169.06 16.573 168.686C16.2944 168.312 15.8764 168.125 15.319 168.125C14.769 168.125 14.351 168.312 14.065 168.686C13.7864 169.06 13.6397 169.577 13.625 170.237L13.614 171.139L13.625 172.063C13.6397 172.73 13.7864 173.247 14.065 173.614C14.351 173.981 14.769 174.164 15.319 174.164ZM20.9375 171.161C20.4608 171.161 20.0831 171.036 19.8045 170.787C19.5331 170.53 19.3828 170.178 19.3535 169.731C19.3461 169.606 19.3425 169.445 19.3425 169.247C19.3425 169.034 19.3461 168.862 19.3535 168.73C19.3755 168.275 19.5185 167.916 19.7825 167.652C20.0538 167.381 20.4388 167.245 20.9375 167.245C21.4361 167.245 21.8175 167.381 22.0815 167.652C22.3528 167.916 22.4995 168.275 22.5215 168.73C22.5361 169.023 22.5435 169.21 22.5435 169.291C22.5435 169.364 22.5361 169.511 22.5215 169.731C22.4995 170.178 22.3491 170.53 22.0705 170.787C21.7918 171.036 21.4141 171.161 20.9375 171.161ZM20.0135 175C19.9475 175 19.8925 174.982 19.8485 174.945C19.8045 174.901 19.7825 174.846 19.7825 174.78C19.7825 174.736 19.7971 174.696 19.8265 174.659L25.2605 167.509C25.3191 167.428 25.3705 167.373 25.4145 167.344C25.4658 167.315 25.5355 167.3 25.6235 167.3H25.9865C26.0598 167.3 26.1148 167.322 26.1515 167.366C26.1955 167.403 26.2175 167.454 26.2175 167.52C26.2175 167.564 26.2028 167.604 26.1735 167.641L20.7505 174.791C20.6918 174.872 20.6368 174.927 20.5855 174.956C20.5415 174.985 20.4718 175 20.3765 175H20.0135ZM20.9375 170.479C21.2015 170.479 21.3921 170.402 21.5095 170.248C21.6341 170.094 21.7075 169.907 21.7295 169.687C21.7441 169.423 21.7515 169.269 21.7515 169.225C21.7515 169.159 21.7441 169.009 21.7295 168.774C21.7148 168.547 21.6415 168.356 21.5095 168.202C21.3848 168.048 21.1941 167.971 20.9375 167.971C20.6808 167.971 20.4901 168.048 20.3655 168.202C20.2408 168.356 20.1711 168.547 20.1565 168.774C20.1491 168.891 20.1455 169.042 20.1455 169.225C20.1455 169.401 20.1491 169.555 20.1565 169.687C20.1785 169.914 20.2481 170.105 20.3655 170.259C20.4901 170.406 20.6808 170.479 20.9375 170.479ZM25.0515 175.066C24.5748 175.066 24.1971 174.934 23.9185 174.67C23.6471 174.399 23.4968 174.039 23.4675 173.592C23.4601 173.467 23.4565 173.306 23.4565 173.108C23.4565 172.895 23.4601 172.723 23.4675 172.591C23.4968 172.136 23.6435 171.777 23.9075 171.513C24.1788 171.242 24.5601 171.106 25.0515 171.106C25.5501 171.106 25.9315 171.242 26.1955 171.513C26.4668 171.777 26.6171 172.136 26.6465 172.591C26.6611 172.855 26.6685 173.027 26.6685 173.108C26.6685 173.181 26.6611 173.343 26.6465 173.592C26.6171 174.039 26.4631 174.399 26.1845 174.67C25.9058 174.934 25.5281 175.066 25.0515 175.066ZM25.0515 174.34C25.3155 174.34 25.5061 174.263 25.6235 174.109C25.7481 173.955 25.8215 173.768 25.8435 173.548C25.8581 173.284 25.8655 173.13 25.8655 173.086C25.8655 173.02 25.8581 172.87 25.8435 172.635C25.8288 172.408 25.7591 172.217 25.6345 172.063C25.5098 171.909 25.3155 171.832 25.0515 171.832C24.7948 171.832 24.6041 171.909 24.4795 172.063C24.3548 172.217 24.2851 172.408 24.2705 172.635C24.2631 172.752 24.2595 172.903 24.2595 173.086C24.2595 173.262 24.2631 173.416 24.2705 173.548C24.2925 173.768 24.3621 173.955 24.4795 174.109C24.6041 174.263 24.7948 174.34 25.0515 174.34Z" fill="#878787"/>
<path d="M9.212 152.11C8.65467 152.11 8.17433 152.011 7.771 151.813C7.36767 151.615 7.056 151.355 6.836 151.032C6.62333 150.709 6.50967 150.365 6.495 149.998V149.976C6.495 149.917 6.517 149.87 6.561 149.833C6.605 149.796 6.65633 149.778 6.715 149.778H7.309C7.463 149.778 7.562 149.859 7.606 150.02C7.70867 150.409 7.90667 150.698 8.2 150.889C8.49333 151.08 8.83067 151.175 9.212 151.175C9.70333 151.175 10.1103 151.028 10.433 150.735C10.763 150.434 10.928 150.02 10.928 149.492C10.928 149.015 10.763 148.63 10.433 148.337C10.1103 148.044 9.70333 147.897 9.212 147.897C8.948 147.897 8.73533 147.934 8.574 148.007C8.41267 148.073 8.25133 148.168 8.09 148.293C8.002 148.359 7.925 148.41 7.859 148.447C7.80033 148.476 7.73433 148.491 7.661 148.491H7.089C7.023 148.491 6.96433 148.469 6.913 148.425C6.86167 148.374 6.83967 148.315 6.847 148.249L7.199 144.575C7.20633 144.487 7.232 144.421 7.276 144.377C7.32733 144.326 7.39333 144.3 7.474 144.3H11.313C11.3863 144.3 11.445 144.326 11.489 144.377C11.5403 144.421 11.566 144.48 11.566 144.553V144.982C11.566 145.055 11.5403 145.118 11.489 145.169C11.445 145.213 11.3863 145.235 11.313 145.235H8.145L7.936 147.402C8.332 147.153 8.80867 147.028 9.366 147.028C9.85 147.028 10.2937 147.127 10.697 147.325C11.1077 147.523 11.4303 147.809 11.665 148.183C11.907 148.557 12.028 148.997 12.028 149.503C12.028 150.046 11.907 150.515 11.665 150.911C11.4303 151.3 11.1003 151.597 10.675 151.802C10.2497 152.007 9.762 152.11 9.212 152.11ZM16.0183 152.11C15.0723 152.11 14.3793 151.835 13.9393 151.285C13.4993 150.735 13.2646 150.013 13.2353 149.118C13.2279 148.92 13.2243 148.601 13.2243 148.161C13.2243 147.706 13.2279 147.376 13.2353 147.171C13.2573 146.291 13.4919 145.576 13.9393 145.026C14.3866 144.469 15.0796 144.19 16.0183 144.19C16.9643 144.19 17.6609 144.469 18.1083 145.026C18.5556 145.576 18.7903 146.291 18.8123 147.171C18.8269 147.582 18.8343 147.912 18.8343 148.161C18.8343 148.403 18.8269 148.722 18.8123 149.118C18.7829 150.013 18.5483 150.735 18.1083 151.285C17.6683 151.835 16.9716 152.11 16.0183 152.11ZM16.0183 151.164C16.5683 151.164 16.9826 150.981 17.2613 150.614C17.5473 150.247 17.6976 149.73 17.7123 149.063C17.7269 148.638 17.7343 148.33 17.7343 148.139C17.7343 147.934 17.7269 147.633 17.7123 147.237C17.6976 146.577 17.5509 146.06 17.2723 145.686C16.9936 145.312 16.5756 145.125 16.0183 145.125C15.4683 145.125 15.0503 145.312 14.7643 145.686C14.4856 146.06 14.3389 146.577 14.3243 147.237L14.3133 148.139L14.3243 149.063C14.3389 149.73 14.4856 150.247 14.7643 150.614C15.0503 150.981 15.4683 151.164 16.0183 151.164ZM21.6367 148.161C21.16 148.161 20.7823 148.036 20.5037 147.787C20.2323 147.53 20.082 147.178 20.0527 146.731C20.0453 146.606 20.0417 146.445 20.0417 146.247C20.0417 146.034 20.0453 145.862 20.0527 145.73C20.0747 145.275 20.2177 144.916 20.4817 144.652C20.753 144.381 21.138 144.245 21.6367 144.245C22.1353 144.245 22.5167 144.381 22.7807 144.652C23.052 144.916 23.1987 145.275 23.2207 145.73C23.2353 146.023 23.2427 146.21 23.2427 146.291C23.2427 146.364 23.2353 146.511 23.2207 146.731C23.1987 147.178 23.0483 147.53 22.7697 147.787C22.491 148.036 22.1133 148.161 21.6367 148.161ZM20.7127 152C20.6467 152 20.5917 151.982 20.5477 151.945C20.5037 151.901 20.4817 151.846 20.4817 151.78C20.4817 151.736 20.4963 151.696 20.5257 151.659L25.9597 144.509C26.0183 144.428 26.0697 144.373 26.1137 144.344C26.165 144.315 26.2347 144.3 26.3227 144.3H26.6857C26.759 144.3 26.814 144.322 26.8507 144.366C26.8947 144.403 26.9167 144.454 26.9167 144.52C26.9167 144.564 26.902 144.604 26.8727 144.641L21.4497 151.791C21.391 151.872 21.336 151.927 21.2847 151.956C21.2407 151.985 21.171 152 21.0757 152H20.7127ZM21.6367 147.479C21.9007 147.479 22.0913 147.402 22.2087 147.248C22.3333 147.094 22.4067 146.907 22.4287 146.687C22.4433 146.423 22.4507 146.269 22.4507 146.225C22.4507 146.159 22.4433 146.009 22.4287 145.774C22.414 145.547 22.3407 145.356 22.2087 145.202C22.084 145.048 21.8933 144.971 21.6367 144.971C21.38 144.971 21.1893 145.048 21.0647 145.202C20.94 145.356 20.8703 145.547 20.8557 145.774C20.8483 145.891 20.8447 146.042 20.8447 146.225C20.8447 146.401 20.8483 146.555 20.8557 146.687C20.8777 146.914 20.9473 147.105 21.0647 147.259C21.1893 147.406 21.38 147.479 21.6367 147.479ZM25.7507 152.066C25.274 152.066 24.8963 151.934 24.6177 151.67C24.3463 151.399 24.196 151.039 24.1667 150.592C24.1593 150.467 24.1557 150.306 24.1557 150.108C24.1557 149.895 24.1593 149.723 24.1667 149.591C24.196 149.136 24.3427 148.777 24.6067 148.513C24.878 148.242 25.2593 148.106 25.7507 148.106C26.2493 148.106 26.6307 148.242 26.8947 148.513C27.166 148.777 27.3163 149.136 27.3457 149.591C27.3603 149.855 27.3677 150.027 27.3677 150.108C27.3677 150.181 27.3603 150.343 27.3457 150.592C27.3163 151.039 27.1623 151.399 26.8837 151.67C26.605 151.934 26.2273 152.066 25.7507 152.066ZM25.7507 151.34C26.0147 151.34 26.2053 151.263 26.3227 151.109C26.4473 150.955 26.5207 150.768 26.5427 150.548C26.5573 150.284 26.5647 150.13 26.5647 150.086C26.5647 150.02 26.5573 149.87 26.5427 149.635C26.528 149.408 26.4583 149.217 26.3337 149.063C26.209 148.909 26.0147 148.832 25.7507 148.832C25.494 148.832 25.3033 148.909 25.1787 149.063C25.054 149.217 24.9843 149.408 24.9697 149.635C24.9623 149.752 24.9587 149.903 24.9587 150.086C24.9587 150.262 24.9623 150.416 24.9697 150.548C24.9917 150.768 25.0613 150.955 25.1787 151.109C25.3033 151.263 25.494 151.34 25.7507 151.34Z" fill="#878787"/>
<path d="M9.388 129.11C8.80133 129.11 8.29167 128.993 7.859 128.758C7.42633 128.516 7.09633 128.193 6.869 127.79C6.64167 127.387 6.528 126.947 6.528 126.47C6.528 126.081 6.605 125.715 6.759 125.37C6.92033 125.018 7.1 124.706 7.298 124.435L9.388 121.52C9.39533 121.513 9.41733 121.487 9.454 121.443C9.48333 121.399 9.52367 121.366 9.575 121.344C9.62633 121.315 9.685 121.3 9.751 121.3H10.334C10.4 121.3 10.4513 121.326 10.488 121.377C10.532 121.421 10.554 121.476 10.554 121.542C10.554 121.593 10.5393 121.641 10.51 121.685L8.904 123.929C9.06533 123.878 9.27433 123.852 9.531 123.852C10.059 123.859 10.5247 123.98 10.928 124.215C11.3387 124.45 11.654 124.765 11.874 125.161C12.1013 125.557 12.215 125.99 12.215 126.459C12.215 126.928 12.1013 127.368 11.874 127.779C11.654 128.182 11.3277 128.505 10.895 128.747C10.4697 128.989 9.96733 129.11 9.388 129.11ZM9.377 128.175C9.69233 128.175 9.982 128.109 10.246 127.977C10.5173 127.845 10.73 127.651 10.884 127.394C11.0453 127.13 11.126 126.818 11.126 126.459C11.126 126.107 11.0453 125.803 10.884 125.546C10.73 125.289 10.5173 125.095 10.246 124.963C9.982 124.831 9.69233 124.765 9.377 124.765C9.069 124.765 8.77933 124.831 8.508 124.963C8.244 125.095 8.03133 125.289 7.87 125.546C7.70867 125.803 7.628 126.107 7.628 126.459C7.628 126.818 7.70867 127.13 7.87 127.394C8.03133 127.651 8.244 127.845 8.508 127.977C8.772 128.109 9.06167 128.175 9.377 128.175ZM16.1149 129.11C15.1689 129.11 14.4759 128.835 14.0359 128.285C13.5959 127.735 13.3613 127.013 13.3319 126.118C13.3246 125.92 13.3209 125.601 13.3209 125.161C13.3209 124.706 13.3246 124.376 13.3319 124.171C13.3539 123.291 13.5886 122.576 14.0359 122.026C14.4833 121.469 15.1763 121.19 16.1149 121.19C17.0609 121.19 17.7576 121.469 18.2049 122.026C18.6523 122.576 18.8869 123.291 18.9089 124.171C18.9236 124.582 18.9309 124.912 18.9309 125.161C18.9309 125.403 18.9236 125.722 18.9089 126.118C18.8796 127.013 18.6449 127.735 18.2049 128.285C17.7649 128.835 17.0683 129.11 16.1149 129.11ZM16.1149 128.164C16.6649 128.164 17.0793 127.981 17.3579 127.614C17.6439 127.247 17.7943 126.73 17.8089 126.063C17.8236 125.638 17.8309 125.33 17.8309 125.139C17.8309 124.934 17.8236 124.633 17.8089 124.237C17.7943 123.577 17.6476 123.06 17.3689 122.686C17.0903 122.312 16.6723 122.125 16.1149 122.125C15.5649 122.125 15.1469 122.312 14.8609 122.686C14.5823 123.06 14.4356 123.577 14.4209 124.237L14.4099 125.139L14.4209 126.063C14.4356 126.73 14.5823 127.247 14.8609 127.614C15.1469 127.981 15.5649 128.164 16.1149 128.164ZM21.7334 125.161C21.2567 125.161 20.879 125.036 20.6004 124.787C20.329 124.53 20.1787 124.178 20.1494 123.731C20.142 123.606 20.1384 123.445 20.1384 123.247C20.1384 123.034 20.142 122.862 20.1494 122.73C20.1714 122.275 20.3144 121.916 20.5784 121.652C20.8497 121.381 21.2347 121.245 21.7334 121.245C22.232 121.245 22.6134 121.381 22.8774 121.652C23.1487 121.916 23.2954 122.275 23.3174 122.73C23.332 123.023 23.3394 123.21 23.3394 123.291C23.3394 123.364 23.332 123.511 23.3174 123.731C23.2954 124.178 23.145 124.53 22.8664 124.787C22.5877 125.036 22.21 125.161 21.7334 125.161ZM20.8094 129C20.7434 129 20.6884 128.982 20.6444 128.945C20.6004 128.901 20.5784 128.846 20.5784 128.78C20.5784 128.736 20.593 128.696 20.6224 128.659L26.0564 121.509C26.115 121.428 26.1664 121.373 26.2104 121.344C26.2617 121.315 26.3314 121.3 26.4194 121.3H26.7824C26.8557 121.3 26.9107 121.322 26.9474 121.366C26.9914 121.403 27.0134 121.454 27.0134 121.52C27.0134 121.564 26.9987 121.604 26.9694 121.641L21.5464 128.791C21.4877 128.872 21.4327 128.927 21.3814 128.956C21.3374 128.985 21.2677 129 21.1724 129H20.8094ZM21.7334 124.479C21.9974 124.479 22.188 124.402 22.3054 124.248C22.43 124.094 22.5034 123.907 22.5254 123.687C22.54 123.423 22.5474 123.269 22.5474 123.225C22.5474 123.159 22.54 123.009 22.5254 122.774C22.5107 122.547 22.4374 122.356 22.3054 122.202C22.1807 122.048 21.99 121.971 21.7334 121.971C21.4767 121.971 21.286 122.048 21.1614 122.202C21.0367 122.356 20.967 122.547 20.9524 122.774C20.945 122.891 20.9414 123.042 20.9414 123.225C20.9414 123.401 20.945 123.555 20.9524 123.687C20.9744 123.914 21.044 124.105 21.1614 124.259C21.286 124.406 21.4767 124.479 21.7334 124.479ZM25.8474 129.066C25.3707 129.066 24.993 128.934 24.7144 128.67C24.443 128.399 24.2927 128.039 24.2634 127.592C24.256 127.467 24.2524 127.306 24.2524 127.108C24.2524 126.895 24.256 126.723 24.2634 126.591C24.2927 126.136 24.4394 125.777 24.7034 125.513C24.9747 125.242 25.356 125.106 25.8474 125.106C26.346 125.106 26.7274 125.242 26.9914 125.513C27.2627 125.777 27.413 126.136 27.4424 126.591C27.457 126.855 27.4644 127.027 27.4644 127.108C27.4644 127.181 27.457 127.343 27.4424 127.592C27.413 128.039 27.259 128.399 26.9804 128.67C26.7017 128.934 26.324 129.066 25.8474 129.066ZM25.8474 128.34C26.1114 128.34 26.302 128.263 26.4194 128.109C26.544 127.955 26.6174 127.768 26.6394 127.548C26.654 127.284 26.6614 127.13 26.6614 127.086C26.6614 127.02 26.654 126.87 26.6394 126.635C26.6247 126.408 26.555 126.217 26.4304 126.063C26.3057 125.909 26.1114 125.832 25.8474 125.832C25.5907 125.832 25.4 125.909 25.2754 126.063C25.1507 126.217 25.081 126.408 25.0664 126.635C25.059 126.752 25.0554 126.903 25.0554 127.086C25.0554 127.262 25.059 127.416 25.0664 127.548C25.0884 127.768 25.158 127.955 25.2754 128.109C25.4 128.263 25.5907 128.34 25.8474 128.34Z" fill="#878787"/>
<path d="M8.639 105C8.573 105 8.518 104.978 8.474 104.934C8.43733 104.883 8.419 104.824 8.419 104.758L8.441 104.659L11.18 98.257H7.572C7.49867 98.257 7.43633 98.235 7.385 98.191C7.341 98.1397 7.319 98.0773 7.319 98.004V97.564C7.319 97.4833 7.341 97.421 7.385 97.377C7.43633 97.3257 7.49867 97.3 7.572 97.3H12.082C12.1627 97.3 12.225 97.3257 12.269 97.377C12.3203 97.421 12.346 97.4833 12.346 97.564V97.971C12.346 98.103 12.3167 98.246 12.258 98.4L9.552 104.725C9.51533 104.806 9.47133 104.872 9.42 104.923C9.376 104.974 9.31367 105 9.233 105H8.639ZM16.1266 105.11C15.1806 105.11 14.4876 104.835 14.0476 104.285C13.6076 103.735 13.373 103.013 13.3436 102.118C13.3363 101.92 13.3326 101.601 13.3326 101.161C13.3326 100.706 13.3363 100.376 13.3436 100.171C13.3656 99.291 13.6003 98.576 14.0476 98.026C14.495 97.4687 15.188 97.19 16.1266 97.19C17.0726 97.19 17.7693 97.4687 18.2166 98.026C18.664 98.576 18.8986 99.291 18.9206 100.171C18.9353 100.582 18.9426 100.912 18.9426 101.161C18.9426 101.403 18.9353 101.722 18.9206 102.118C18.8913 103.013 18.6566 103.735 18.2166 104.285C17.7766 104.835 17.08 105.11 16.1266 105.11ZM16.1266 104.164C16.6766 104.164 17.091 103.981 17.3696 103.614C17.6556 103.247 17.806 102.73 17.8206 102.063C17.8353 101.638 17.8426 101.33 17.8426 101.139C17.8426 100.934 17.8353 100.633 17.8206 100.237C17.806 99.577 17.6593 99.06 17.3806 98.686C17.102 98.312 16.684 98.125 16.1266 98.125C15.5766 98.125 15.1586 98.312 14.8726 98.686C14.594 99.06 14.4473 99.577 14.4326 100.237L14.4216 101.139L14.4326 102.063C14.4473 102.73 14.594 103.247 14.8726 103.614C15.1586 103.981 15.5766 104.164 16.1266 104.164ZM21.7451 101.161C21.2684 101.161 20.8907 101.036 20.6121 100.787C20.3407 100.53 20.1904 100.178 20.1611 99.731C20.1537 99.6063 20.1501 99.445 20.1501 99.247C20.1501 99.0343 20.1537 98.862 20.1611 98.73C20.1831 98.2753 20.3261 97.916 20.5901 97.652C20.8614 97.3807 21.2464 97.245 21.7451 97.245C22.2437 97.245 22.6251 97.3807 22.8891 97.652C23.1604 97.916 23.3071 98.2753 23.3291 98.73C23.3437 99.0233 23.3511 99.2103 23.3511 99.291C23.3511 99.3643 23.3437 99.511 23.3291 99.731C23.3071 100.178 23.1567 100.53 22.8781 100.787C22.5994 101.036 22.2217 101.161 21.7451 101.161ZM20.8211 105C20.7551 105 20.7001 104.982 20.6561 104.945C20.6121 104.901 20.5901 104.846 20.5901 104.78C20.5901 104.736 20.6047 104.696 20.6341 104.659L26.0681 97.509C26.1267 97.4283 26.1781 97.3733 26.2221 97.344C26.2734 97.3147 26.3431 97.3 26.4311 97.3H26.7941C26.8674 97.3 26.9224 97.322 26.9591 97.366C27.0031 97.4027 27.0251 97.454 27.0251 97.52C27.0251 97.564 27.0104 97.6043 26.9811 97.641L21.5581 104.791C21.4994 104.872 21.4444 104.927 21.3931 104.956C21.3491 104.985 21.2794 105 21.1841 105H20.8211ZM21.7451 100.479C22.0091 100.479 22.1997 100.402 22.3171 100.248C22.4417 100.094 22.5151 99.907 22.5371 99.687C22.5517 99.423 22.5591 99.269 22.5591 99.225C22.5591 99.159 22.5517 99.0087 22.5371 98.774C22.5224 98.5467 22.4491 98.356 22.3171 98.202C22.1924 98.048 22.0017 97.971 21.7451 97.971C21.4884 97.971 21.2977 98.048 21.1731 98.202C21.0484 98.356 20.9787 98.5467 20.9641 98.774C20.9567 98.8913 20.9531 99.0417 20.9531 99.225C20.9531 99.401 20.9567 99.555 20.9641 99.687C20.9861 99.9143 21.0557 100.105 21.1731 100.259C21.2977 100.406 21.4884 100.479 21.7451 100.479ZM25.8591 105.066C25.3824 105.066 25.0047 104.934 24.7261 104.67C24.4547 104.399 24.3044 104.039 24.2751 103.592C24.2677 103.467 24.2641 103.306 24.2641 103.108C24.2641 102.895 24.2677 102.723 24.2751 102.591C24.3044 102.136 24.4511 101.777 24.7151 101.513C24.9864 101.242 25.3677 101.106 25.8591 101.106C26.3577 101.106 26.7391 101.242 27.0031 101.513C27.2744 101.777 27.4247 102.136 27.4541 102.591C27.4687 102.855 27.4761 103.027 27.4761 103.108C27.4761 103.181 27.4687 103.343 27.4541 103.592C27.4247 104.039 27.2707 104.399 26.9921 104.67C26.7134 104.934 26.3357 105.066 25.8591 105.066ZM25.8591 104.34C26.1231 104.34 26.3137 104.263 26.4311 104.109C26.5557 103.955 26.6291 103.768 26.6511 103.548C26.6657 103.284 26.6731 103.13 26.6731 103.086C26.6731 103.02 26.6657 102.87 26.6511 102.635C26.6364 102.408 26.5667 102.217 26.4421 102.063C26.3174 101.909 26.1231 101.832 25.8591 101.832C25.6024 101.832 25.4117 101.909 25.2871 102.063C25.1624 102.217 25.0927 102.408 25.0781 102.635C25.0707 102.752 25.0671 102.903 25.0671 103.086C25.0671 103.262 25.0707 103.416 25.0781 103.548C25.1001 103.768 25.1697 103.955 25.2871 104.109C25.4117 104.263 25.6024 104.34 25.8591 104.34Z" fill="#878787"/>
<path d="M8.498 83.11C7.926 83.11 7.42367 83.0183 6.991 82.835C6.55833 82.6443 6.221 82.373 5.979 82.021C5.737 81.669 5.616 81.2583 5.616 80.789C5.616 80.3563 5.72233 79.9787 5.935 79.656C6.14767 79.326 6.43733 79.073 6.804 78.897C6.51067 78.7283 6.28333 78.5083 6.122 78.237C5.968 77.9583 5.891 77.6357 5.891 77.269C5.891 76.6237 6.12567 76.1177 6.595 75.751C7.07167 75.377 7.706 75.19 8.498 75.19C9.28267 75.19 9.90967 75.377 10.379 75.751C10.8557 76.1177 11.094 76.62 11.094 77.258C11.094 77.6247 11.0133 77.9473 10.852 78.226C10.698 78.4973 10.478 78.721 10.192 78.897C10.5587 79.073 10.8483 79.326 11.061 79.656C11.2737 79.9787 11.38 80.3563 11.38 80.789C11.38 81.2583 11.259 81.669 11.017 82.021C10.775 82.373 10.434 82.6443 9.994 82.835C9.56133 83.0183 9.06267 83.11 8.498 83.11ZM8.498 78.501C8.938 78.4937 9.30833 78.38 9.609 78.16C9.90967 77.94 10.06 77.6503 10.06 77.291C10.06 76.9243 9.90967 76.631 9.609 76.411C9.31567 76.1837 8.94533 76.07 8.498 76.07C8.04333 76.07 7.66567 76.18 7.365 76.4C7.07167 76.62 6.925 76.917 6.925 77.291C6.925 77.6577 7.07167 77.951 7.365 78.171C7.66567 78.391 8.04333 78.501 8.498 78.501ZM8.498 82.23C9.01133 82.23 9.44033 82.098 9.785 81.834C10.1297 81.57 10.302 81.2217 10.302 80.789C10.302 80.3563 10.1297 80.0117 9.785 79.755C9.44033 79.4983 9.01133 79.37 8.498 79.37C7.97733 79.37 7.54467 79.4983 7.2 79.755C6.85533 80.0117 6.683 80.3563 6.683 80.789C6.683 81.2217 6.85533 81.57 7.2 81.834C7.54467 82.098 7.97733 82.23 8.498 82.23ZM15.4802 83.11C14.5342 83.11 13.8412 82.835 13.4012 82.285C12.9612 81.735 12.7265 81.0127 12.6972 80.118C12.6898 79.92 12.6862 79.601 12.6862 79.161C12.6862 78.7063 12.6898 78.3763 12.6972 78.171C12.7192 77.291 12.9538 76.576 13.4012 76.026C13.8485 75.4687 14.5415 75.19 15.4802 75.19C16.4262 75.19 17.1228 75.4687 17.5702 76.026C18.0175 76.576 18.2522 77.291 18.2742 78.171C18.2888 78.5817 18.2962 78.9117 18.2962 79.161C18.2962 79.403 18.2888 79.722 18.2742 80.118C18.2448 81.0127 18.0102 81.735 17.5702 82.285C17.1302 82.835 16.4335 83.11 15.4802 83.11ZM15.4802 82.164C16.0302 82.164 16.4445 81.9807 16.7232 81.614C17.0092 81.2473 17.1595 80.7303 17.1742 80.063C17.1888 79.6377 17.1962 79.3297 17.1962 79.139C17.1962 78.9337 17.1888 78.633 17.1742 78.237C17.1595 77.577 17.0128 77.06 16.7342 76.686C16.4555 76.312 16.0375 76.125 15.4802 76.125C14.9302 76.125 14.5122 76.312 14.2262 76.686C13.9475 77.06 13.8008 77.577 13.7862 78.237L13.7752 79.139L13.7862 80.063C13.8008 80.7303 13.9475 81.2473 14.2262 81.614C14.5122 81.9807 14.9302 82.164 15.4802 82.164ZM21.0986 79.161C20.6219 79.161 20.2443 79.0363 19.9656 78.787C19.6943 78.5303 19.5439 78.1783 19.5146 77.731C19.5073 77.6063 19.5036 77.445 19.5036 77.247C19.5036 77.0343 19.5073 76.862 19.5146 76.73C19.5366 76.2753 19.6796 75.916 19.9436 75.652C20.2149 75.3807 20.5999 75.245 21.0986 75.245C21.5973 75.245 21.9786 75.3807 22.2426 75.652C22.5139 75.916 22.6606 76.2753 22.6826 76.73C22.6973 77.0233 22.7046 77.2103 22.7046 77.291C22.7046 77.3643 22.6973 77.511 22.6826 77.731C22.6606 78.1783 22.5103 78.5303 22.2316 78.787C21.9529 79.0363 21.5753 79.161 21.0986 79.161ZM20.1746 83C20.1086 83 20.0536 82.9817 20.0096 82.945C19.9656 82.901 19.9436 82.846 19.9436 82.78C19.9436 82.736 19.9583 82.6957 19.9876 82.659L25.4216 75.509C25.4803 75.4283 25.5316 75.3733 25.5756 75.344C25.6269 75.3147 25.6966 75.3 25.7846 75.3H26.1476C26.2209 75.3 26.2759 75.322 26.3126 75.366C26.3566 75.4027 26.3786 75.454 26.3786 75.52C26.3786 75.564 26.3639 75.6043 26.3346 75.641L20.9116 82.791C20.8529 82.8717 20.7979 82.9267 20.7466 82.956C20.7026 82.9853 20.6329 83 20.5376 83H20.1746ZM21.0986 78.479C21.3626 78.479 21.5533 78.402 21.6706 78.248C21.7953 78.094 21.8686 77.907 21.8906 77.687C21.9053 77.423 21.9126 77.269 21.9126 77.225C21.9126 77.159 21.9053 77.0087 21.8906 76.774C21.8759 76.5467 21.8026 76.356 21.6706 76.202C21.5459 76.048 21.3553 75.971 21.0986 75.971C20.8419 75.971 20.6513 76.048 20.5266 76.202C20.4019 76.356 20.3323 76.5467 20.3176 76.774C20.3103 76.8913 20.3066 77.0417 20.3066 77.225C20.3066 77.401 20.3103 77.555 20.3176 77.687C20.3396 77.9143 20.4093 78.105 20.5266 78.259C20.6513 78.4057 20.8419 78.479 21.0986 78.479ZM25.2126 83.066C24.7359 83.066 24.3583 82.934 24.0796 82.67C23.8083 82.3987 23.6579 82.0393 23.6286 81.592C23.6213 81.4673 23.6176 81.306 23.6176 81.108C23.6176 80.8953 23.6213 80.723 23.6286 80.591C23.6579 80.1363 23.8046 79.777 24.0686 79.513C24.3399 79.2417 24.7213 79.106 25.2126 79.106C25.7113 79.106 26.0926 79.2417 26.3566 79.513C26.6279 79.777 26.7783 80.1363 26.8076 80.591C26.8223 80.855 26.8296 81.0273 26.8296 81.108C26.8296 81.1813 26.8223 81.3427 26.8076 81.592C26.7783 82.0393 26.6243 82.3987 26.3456 82.67C26.0669 82.934 25.6893 83.066 25.2126 83.066ZM25.2126 82.34C25.4766 82.34 25.6673 82.263 25.7846 82.109C25.9093 81.955 25.9826 81.768 26.0046 81.548C26.0193 81.284 26.0266 81.13 26.0266 81.086C26.0266 81.02 26.0193 80.8697 26.0046 80.635C25.9899 80.4077 25.9203 80.217 25.7956 80.063C25.6709 79.909 25.4766 79.832 25.2126 79.832C24.9559 79.832 24.7653 79.909 24.6406 80.063C24.5159 80.217 24.4463 80.4077 24.4316 80.635C24.4243 80.7523 24.4206 80.9027 24.4206 81.086C24.4206 81.262 24.4243 81.416 24.4316 81.548C24.4536 81.768 24.5233 81.955 24.6406 82.109C24.7653 82.263 24.9559 82.34 25.2126 82.34Z" fill="#878787"/>
<path d="M8.123 60C8.057 60 8.002 59.978 7.958 59.934C7.92133 59.8827 7.903 59.824 7.903 59.758C7.903 59.7067 7.91767 59.659 7.947 59.615L9.63 57.272C9.454 57.316 9.256 57.338 9.036 57.338C8.51533 57.3307 8.05333 57.2097 7.65 56.975C7.254 56.7403 6.94967 56.4287 6.737 56.04C6.52433 55.6513 6.418 55.237 6.418 54.797C6.418 54.357 6.52067 53.939 6.726 53.543C6.93867 53.1397 7.254 52.8133 7.672 52.564C8.09 52.3147 8.596 52.19 9.19 52.19C9.784 52.19 10.29 52.311 10.708 52.553C11.1333 52.795 11.4523 53.114 11.665 53.51C11.8777 53.906 11.984 54.3277 11.984 54.775C11.984 55.171 11.9143 55.523 11.775 55.831C11.6357 56.1317 11.4413 56.4617 11.192 56.821L9.069 59.78C9.01767 59.846 8.96633 59.901 8.915 59.945C8.871 59.9817 8.805 60 8.717 60H8.123ZM9.19 56.447C9.498 56.447 9.78033 56.381 10.037 56.249C10.301 56.1097 10.51 55.9153 10.664 55.666C10.818 55.4093 10.895 55.116 10.895 54.786C10.895 54.456 10.818 54.1663 10.664 53.917C10.51 53.6603 10.301 53.466 10.037 53.334C9.78033 53.1947 9.498 53.125 9.19 53.125C8.882 53.125 8.59967 53.1947 8.343 53.334C8.08633 53.466 7.881 53.6603 7.727 53.917C7.58033 54.1663 7.507 54.456 7.507 54.786C7.507 55.116 7.58033 55.4093 7.727 55.666C7.881 55.9153 8.08633 56.1097 8.343 56.249C8.59967 56.381 8.882 56.447 9.19 56.447ZM16.0075 60.11C15.0615 60.11 14.3685 59.835 13.9285 59.285C13.4885 58.735 13.2538 58.0127 13.2245 57.118C13.2172 56.92 13.2135 56.601 13.2135 56.161C13.2135 55.7063 13.2172 55.3763 13.2245 55.171C13.2465 54.291 13.4812 53.576 13.9285 53.026C14.3758 52.4687 15.0688 52.19 16.0075 52.19C16.9535 52.19 17.6502 52.4687 18.0975 53.026C18.5448 53.576 18.7795 54.291 18.8015 55.171C18.8162 55.5817 18.8235 55.9117 18.8235 56.161C18.8235 56.403 18.8162 56.722 18.8015 57.118C18.7722 58.0127 18.5375 58.735 18.0975 59.285C17.6575 59.835 16.9608 60.11 16.0075 60.11ZM16.0075 59.164C16.5575 59.164 16.9718 58.9807 17.2505 58.614C17.5365 58.2473 17.6868 57.7303 17.7015 57.063C17.7162 56.6377 17.7235 56.3297 17.7235 56.139C17.7235 55.9337 17.7162 55.633 17.7015 55.237C17.6868 54.577 17.5402 54.06 17.2615 53.686C16.9828 53.312 16.5648 53.125 16.0075 53.125C15.4575 53.125 15.0395 53.312 14.7535 53.686C14.4748 54.06 14.3282 54.577 14.3135 55.237L14.3025 56.139L14.3135 57.063C14.3282 57.7303 14.4748 58.2473 14.7535 58.614C15.0395 58.9807 15.4575 59.164 16.0075 59.164ZM21.6259 56.161C21.1493 56.161 20.7716 56.0363 20.4929 55.787C20.2216 55.5303 20.0713 55.1783 20.0419 54.731C20.0346 54.6063 20.0309 54.445 20.0309 54.247C20.0309 54.0343 20.0346 53.862 20.0419 53.73C20.0639 53.2753 20.2069 52.916 20.4709 52.652C20.7423 52.3807 21.1273 52.245 21.6259 52.245C22.1246 52.245 22.5059 52.3807 22.7699 52.652C23.0413 52.916 23.1879 53.2753 23.2099 53.73C23.2246 54.0233 23.2319 54.2103 23.2319 54.291C23.2319 54.3643 23.2246 54.511 23.2099 54.731C23.1879 55.1783 23.0376 55.5303 22.7589 55.787C22.4803 56.0363 22.1026 56.161 21.6259 56.161ZM20.7019 60C20.6359 60 20.5809 59.9817 20.5369 59.945C20.4929 59.901 20.4709 59.846 20.4709 59.78C20.4709 59.736 20.4856 59.6957 20.5149 59.659L25.9489 52.509C26.0076 52.4283 26.0589 52.3733 26.1029 52.344C26.1543 52.3147 26.2239 52.3 26.3119 52.3H26.6749C26.7483 52.3 26.8033 52.322 26.8399 52.366C26.8839 52.4027 26.9059 52.454 26.9059 52.52C26.9059 52.564 26.8913 52.6043 26.8619 52.641L21.4389 59.791C21.3803 59.8717 21.3253 59.9267 21.2739 59.956C21.2299 59.9853 21.1603 60 21.0649 60H20.7019ZM21.6259 55.479C21.8899 55.479 22.0806 55.402 22.1979 55.248C22.3226 55.094 22.3959 54.907 22.4179 54.687C22.4326 54.423 22.4399 54.269 22.4399 54.225C22.4399 54.159 22.4326 54.0087 22.4179 53.774C22.4033 53.5467 22.3299 53.356 22.1979 53.202C22.0733 53.048 21.8826 52.971 21.6259 52.971C21.3693 52.971 21.1786 53.048 21.0539 53.202C20.9293 53.356 20.8596 53.5467 20.8449 53.774C20.8376 53.8913 20.8339 54.0417 20.8339 54.225C20.8339 54.401 20.8376 54.555 20.8449 54.687C20.8669 54.9143 20.9366 55.105 21.0539 55.259C21.1786 55.4057 21.3693 55.479 21.6259 55.479ZM25.7399 60.066C25.2633 60.066 24.8856 59.934 24.6069 59.67C24.3356 59.3987 24.1853 59.0393 24.1559 58.592C24.1486 58.4673 24.1449 58.306 24.1449 58.108C24.1449 57.8953 24.1486 57.723 24.1559 57.591C24.1853 57.1363 24.3319 56.777 24.5959 56.513C24.8673 56.2417 25.2486 56.106 25.7399 56.106C26.2386 56.106 26.6199 56.2417 26.8839 56.513C27.1553 56.777 27.3056 57.1363 27.3349 57.591C27.3496 57.855 27.3569 58.0273 27.3569 58.108C27.3569 58.1813 27.3496 58.3427 27.3349 58.592C27.3056 59.0393 27.1516 59.3987 26.8729 59.67C26.5943 59.934 26.2166 60.066 25.7399 60.066ZM25.7399 59.34C26.0039 59.34 26.1946 59.263 26.3119 59.109C26.4366 58.955 26.5099 58.768 26.5319 58.548C26.5466 58.284 26.5539 58.13 26.5539 58.086C26.5539 58.02 26.5466 57.8697 26.5319 57.635C26.5173 57.4077 26.4476 57.217 26.3229 57.063C26.1983 56.909 26.0039 56.832 25.7399 56.832C25.4833 56.832 25.2926 56.909 25.1679 57.063C25.0433 57.217 24.9736 57.4077 24.9589 57.635C24.9516 57.7523 24.9479 57.9027 24.9479 58.086C24.9479 58.262 24.9516 58.416 24.9589 58.548C24.9809 58.768 25.0506 58.955 25.1679 59.109C25.2926 59.263 25.4833 59.34 25.7399 59.34Z" fill="#878787"/>
<path d="M3.036 37C2.96267 37 2.90033 36.978 2.849 36.934C2.805 36.8827 2.783 36.8203 2.783 36.747V30.587L0.957 31.995C0.905667 32.039 0.850667 32.061 0.792 32.061C0.726 32.061 0.663667 32.0243 0.605 31.951L0.319 31.588C0.282333 31.5367 0.264 31.4853 0.264 31.434C0.264 31.346 0.300667 31.2763 0.374 31.225L2.772 29.377C2.85267 29.3257 2.948 29.3 3.058 29.3H3.619C3.69233 29.3 3.751 29.3257 3.795 29.377C3.84633 29.421 3.872 29.4797 3.872 29.553V36.747C3.872 36.8203 3.84633 36.8827 3.795 36.934C3.751 36.978 3.69233 37 3.619 37H3.036ZM8.19208 37.11C7.24608 37.11 6.55308 36.835 6.11308 36.285C5.67308 35.735 5.43841 35.0127 5.40908 34.118C5.40174 33.92 5.39808 33.601 5.39808 33.161C5.39808 32.7063 5.40174 32.3763 5.40908 32.171C5.43108 31.291 5.66574 30.576 6.11308 30.026C6.56041 29.4687 7.25341 29.19 8.19208 29.19C9.13808 29.19 9.83474 29.4687 10.2821 30.026C10.7294 30.576 10.9641 31.291 10.9861 32.171C11.0007 32.5817 11.0081 32.9117 11.0081 33.161C11.0081 33.403 11.0007 33.722 10.9861 34.118C10.9567 35.0127 10.7221 35.735 10.2821 36.285C9.84208 36.835 9.14541 37.11 8.19208 37.11ZM8.19208 36.164C8.74208 36.164 9.15641 35.9807 9.43508 35.614C9.72108 35.2473 9.87141 34.7303 9.88608 34.063C9.90074 33.6377 9.90808 33.3297 9.90808 33.139C9.90808 32.9337 9.90074 32.633 9.88608 32.237C9.87141 31.577 9.72474 31.06 9.44608 30.686C9.16741 30.312 8.74941 30.125 8.19208 30.125C7.64208 30.125 7.22408 30.312 6.93808 30.686C6.65941 31.06 6.51274 31.577 6.49808 32.237L6.48708 33.139L6.49808 34.063C6.51274 34.7303 6.65941 35.2473 6.93808 35.614C7.22408 35.9807 7.64208 36.164 8.19208 36.164ZM15.1745 37.11C14.2285 37.11 13.5355 36.835 13.0955 36.285C12.6555 35.735 12.4208 35.0127 12.3915 34.118C12.3842 33.92 12.3805 33.601 12.3805 33.161C12.3805 32.7063 12.3842 32.3763 12.3915 32.171C12.4135 31.291 12.6482 30.576 13.0955 30.026C13.5428 29.4687 14.2358 29.19 15.1745 29.19C16.1205 29.19 16.8172 29.4687 17.2645 30.026C17.7118 30.576 17.9465 31.291 17.9685 32.171C17.9832 32.5817 17.9905 32.9117 17.9905 33.161C17.9905 33.403 17.9832 33.722 17.9685 34.118C17.9392 35.0127 17.7045 35.735 17.2645 36.285C16.8245 36.835 16.1278 37.11 15.1745 37.11ZM15.1745 36.164C15.7245 36.164 16.1388 35.9807 16.4175 35.614C16.7035 35.2473 16.8538 34.7303 16.8685 34.063C16.8832 33.6377 16.8905 33.3297 16.8905 33.139C16.8905 32.9337 16.8832 32.633 16.8685 32.237C16.8538 31.577 16.7072 31.06 16.4285 30.686C16.1498 30.312 15.7318 30.125 15.1745 30.125C14.6245 30.125 14.2065 30.312 13.9205 30.686C13.6418 31.06 13.4952 31.577 13.4805 32.237L13.4695 33.139L13.4805 34.063C13.4952 34.7303 13.6418 35.2473 13.9205 35.614C14.2065 35.9807 14.6245 36.164 15.1745 36.164ZM20.7929 33.161C20.3163 33.161 19.9386 33.0363 19.6599 32.787C19.3886 32.5303 19.2383 32.1783 19.2089 31.731C19.2016 31.6063 19.1979 31.445 19.1979 31.247C19.1979 31.0343 19.2016 30.862 19.2089 30.73C19.2309 30.2753 19.3739 29.916 19.6379 29.652C19.9093 29.3807 20.2943 29.245 20.7929 29.245C21.2916 29.245 21.6729 29.3807 21.9369 29.652C22.2083 29.916 22.3549 30.2753 22.3769 30.73C22.3916 31.0233 22.3989 31.2103 22.3989 31.291C22.3989 31.3643 22.3916 31.511 22.3769 31.731C22.3549 32.1783 22.2046 32.5303 21.9259 32.787C21.6473 33.0363 21.2696 33.161 20.7929 33.161ZM19.8689 37C19.8029 37 19.7479 36.9817 19.7039 36.945C19.6599 36.901 19.6379 36.846 19.6379 36.78C19.6379 36.736 19.6526 36.6957 19.6819 36.659L25.1159 29.509C25.1746 29.4283 25.2259 29.3733 25.2699 29.344C25.3213 29.3147 25.3909 29.3 25.4789 29.3H25.8419C25.9153 29.3 25.9703 29.322 26.0069 29.366C26.0509 29.4027 26.0729 29.454 26.0729 29.52C26.0729 29.564 26.0583 29.6043 26.0289 29.641L20.6059 36.791C20.5473 36.8717 20.4923 36.9267 20.4409 36.956C20.3969 36.9853 20.3273 37 20.2319 37H19.8689ZM20.7929 32.479C21.0569 32.479 21.2476 32.402 21.3649 32.248C21.4896 32.094 21.5629 31.907 21.5849 31.687C21.5996 31.423 21.6069 31.269 21.6069 31.225C21.6069 31.159 21.5996 31.0087 21.5849 30.774C21.5703 30.5467 21.4969 30.356 21.3649 30.202C21.2403 30.048 21.0496 29.971 20.7929 29.971C20.5363 29.971 20.3456 30.048 20.2209 30.202C20.0963 30.356 20.0266 30.5467 20.0119 30.774C20.0046 30.8913 20.0009 31.0417 20.0009 31.225C20.0009 31.401 20.0046 31.555 20.0119 31.687C20.0339 31.9143 20.1036 32.105 20.2209 32.259C20.3456 32.4057 20.5363 32.479 20.7929 32.479ZM24.9069 37.066C24.4303 37.066 24.0526 36.934 23.7739 36.67C23.5026 36.3987 23.3523 36.0393 23.3229 35.592C23.3156 35.4673 23.3119 35.306 23.3119 35.108C23.3119 34.8953 23.3156 34.723 23.3229 34.591C23.3523 34.1363 23.4989 33.777 23.7629 33.513C24.0343 33.2417 24.4156 33.106 24.9069 33.106C25.4056 33.106 25.7869 33.2417 26.0509 33.513C26.3223 33.777 26.4726 34.1363 26.5019 34.591C26.5166 34.855 26.5239 35.0273 26.5239 35.108C26.5239 35.1813 26.5166 35.3427 26.5019 35.592C26.4726 36.0393 26.3186 36.3987 26.0399 36.67C25.7613 36.934 25.3836 37.066 24.9069 37.066ZM24.9069 36.34C25.1709 36.34 25.3616 36.263 25.4789 36.109C25.6036 35.955 25.6769 35.768 25.6989 35.548C25.7136 35.284 25.7209 35.13 25.7209 35.086C25.7209 35.02 25.7136 34.8697 25.6989 34.635C25.6843 34.4077 25.6146 34.217 25.4899 34.063C25.3653 33.909 25.1709 33.832 24.9069 33.832C24.6503 33.832 24.4596 33.909 24.3349 34.063C24.2103 34.217 24.1406 34.4077 24.1259 34.635C24.1186 34.7523 24.1149 34.9027 24.1149 35.086C24.1149 35.262 24.1186 35.416 24.1259 35.548C24.1479 35.768 24.2176 35.955 24.3349 36.109C24.4596 36.263 24.6503 36.34 24.9069 36.34Z" fill="#878787"/>
<rect x="43" y="57" width="40" height="201" fill="#1C2D40"/>
<rect x="98" y="96" width="40" height="162" fill="#80A7D6"/>
<rect x="151" y="37" width="40" height="221" fill="#1C2D40"/>
<rect x="206" y="57" width="40" height="201" fill="#80A7D6"/>
<rect x="260" y="83" width="40" height="175" fill="#1C2D40"/>
<rect x="313" y="78" width="40" height="180" fill="#80A7D6"/>
<path d="M63 34L118.5 78L172 11.5L199.75 6.25L227.5 1L280 34L333 69.5" stroke="#D93939"/>
</svg>
