<svg width="371" height="194" viewBox="0 0 371 194" fill="none" xmlns="http://www.w3.org/2000/svg">
<circle cx="97" cy="97" r="97" fill="#80A7D6"/>
<circle cx="96" cy="97" r="57" fill="white"/>
<path d="M187.5 130C209.5 59.5 158.5 18.5 140 11L122 46C155.2 65.6 155.333 97.8334 151.5 112L187.5 130Z" fill="#97BCE8"/>
<g filter="url(#filter0_bd_287_130)">
<rect x="207.75" y="26.75" width="158.5" height="132.5" rx="5.25" stroke="#E0E0E0" stroke-width="0.5" shape-rendering="crispEdges"/>
</g>
<path d="M226 54.7143L243.883 69L261.122 47.4091L270.064 45.7045L279.006 44L295.922 54.7143L313 66.2403" stroke="#D93939"/>
<line x1="226" y1="78.5" x2="355" y2="78.5" stroke="black"/>
<path d="M228.63 97C228.563 97 228.507 96.98 228.46 96.94C228.42 96.8933 228.4 96.8367 228.4 96.77V90.89H226.48C226.413 90.89 226.357 90.87 226.31 90.83C226.27 90.7833 226.25 90.7267 226.25 90.66V90.24C226.25 90.1667 226.27 90.11 226.31 90.07C226.357 90.0233 226.413 90 226.48 90H231.3C231.373 90 231.43 90.0233 231.47 90.07C231.517 90.11 231.54 90.1667 231.54 90.24V90.66C231.54 90.7267 231.517 90.7833 231.47 90.83C231.43 90.87 231.373 90.89 231.3 90.89H229.39V96.77C229.39 96.8367 229.367 96.8933 229.32 96.94C229.28 96.98 229.223 97 229.15 97H228.63ZM233.704 97.1C233.197 97.1 232.774 97.0033 232.434 96.81C232.094 96.6167 231.834 96.35 231.654 96.01C231.474 95.6633 231.374 95.27 231.354 94.83C231.347 94.7167 231.344 94.5733 231.344 94.4C231.344 94.22 231.347 94.0767 231.354 93.97C231.374 93.5233 231.474 93.13 231.654 92.79C231.841 92.45 232.104 92.1833 232.444 91.99C232.784 91.7967 233.204 91.7 233.704 91.7C234.204 91.7 234.624 91.7967 234.964 91.99C235.304 92.1833 235.564 92.45 235.744 92.79C235.931 93.13 236.034 93.5233 236.054 93.97C236.061 94.0767 236.064 94.22 236.064 94.4C236.064 94.5733 236.061 94.7167 236.054 94.83C236.034 95.27 235.934 95.6633 235.754 96.01C235.574 96.35 235.314 96.6167 234.974 96.81C234.634 97.0033 234.211 97.1 233.704 97.1ZM233.704 96.33C234.117 96.33 234.447 96.2 234.694 95.94C234.941 95.6733 235.074 95.2867 235.094 94.78C235.101 94.68 235.104 94.5533 235.104 94.4C235.104 94.2467 235.101 94.12 235.094 94.02C235.074 93.5133 234.941 93.13 234.694 92.87C234.447 92.6033 234.117 92.47 233.704 92.47C233.291 92.47 232.957 92.6033 232.704 92.87C232.457 93.13 232.327 93.5133 232.314 94.02C232.307 94.12 232.304 94.2467 232.304 94.4C232.304 94.5533 232.307 94.68 232.314 94.78C232.327 95.2867 232.457 95.6733 232.704 95.94C232.957 96.2 233.291 96.33 233.704 96.33ZM239.297 97C238.924 97 238.621 96.93 238.387 96.79C238.154 96.6433 237.984 96.44 237.877 96.18C237.771 95.9133 237.717 95.6 237.717 95.24V92.6H236.937C236.871 92.6 236.814 92.58 236.767 92.54C236.727 92.4933 236.707 92.4367 236.707 92.37V92.03C236.707 91.9633 236.727 91.91 236.767 91.87C236.814 91.8233 236.871 91.8 236.937 91.8H237.717V90.13C237.717 90.0633 237.737 90.01 237.777 89.97C237.824 89.9233 237.881 89.9 237.947 89.9H238.417C238.484 89.9 238.537 89.9233 238.577 89.97C238.624 90.01 238.647 90.0633 238.647 90.13V91.8H239.887C239.954 91.8 240.007 91.8233 240.047 91.87C240.094 91.91 240.117 91.9633 240.117 92.03V92.37C240.117 92.4367 240.094 92.4933 240.047 92.54C240.007 92.58 239.954 92.6 239.887 92.6H238.647V95.17C238.647 95.4833 238.701 95.73 238.807 95.91C238.914 96.09 239.104 96.18 239.377 96.18H239.987C240.054 96.18 240.107 96.2033 240.147 96.25C240.194 96.29 240.217 96.3433 240.217 96.41V96.77C240.217 96.8367 240.194 96.8933 240.147 96.94C240.107 96.98 240.054 97 239.987 97H239.297ZM242.624 97.1C242.29 97.1 241.987 97.0333 241.714 96.9C241.44 96.7667 241.22 96.5867 241.054 96.36C240.887 96.1333 240.804 95.8767 240.804 95.59C240.804 95.13 240.99 94.7633 241.364 94.49C241.737 94.2167 242.224 94.0367 242.824 93.95L244.314 93.74V93.45C244.314 93.13 244.22 92.88 244.034 92.7C243.854 92.52 243.557 92.43 243.144 92.43C242.844 92.43 242.6 92.49 242.414 92.61C242.234 92.73 242.107 92.8833 242.034 93.07C241.994 93.17 241.924 93.22 241.824 93.22H241.374C241.3 93.22 241.244 93.2 241.204 93.16C241.17 93.1133 241.154 93.06 241.154 93C241.154 92.9 241.19 92.7767 241.264 92.63C241.344 92.4833 241.464 92.34 241.624 92.2C241.784 92.06 241.987 91.9433 242.234 91.85C242.487 91.75 242.794 91.7 243.154 91.7C243.554 91.7 243.89 91.7533 244.164 91.86C244.437 91.96 244.65 92.0967 244.804 92.27C244.964 92.4433 245.077 92.64 245.144 92.86C245.217 93.08 245.254 93.3033 245.254 93.53V96.77C245.254 96.8367 245.23 96.8933 245.184 96.94C245.144 96.98 245.09 97 245.024 97H244.564C244.49 97 244.434 96.98 244.394 96.94C244.354 96.8933 244.334 96.8367 244.334 96.77V96.34C244.247 96.46 244.13 96.58 243.984 96.7C243.837 96.8133 243.654 96.91 243.434 96.99C243.214 97.0633 242.944 97.1 242.624 97.1ZM242.834 96.35C243.107 96.35 243.357 96.2933 243.584 96.18C243.81 96.06 243.987 95.8767 244.114 95.63C244.247 95.3833 244.314 95.0733 244.314 94.7V94.42L243.154 94.59C242.68 94.6567 242.324 94.77 242.084 94.93C241.844 95.0833 241.724 95.28 241.724 95.52C241.724 95.7067 241.777 95.8633 241.884 95.99C241.997 96.11 242.137 96.2 242.304 96.26C242.477 96.32 242.654 96.35 242.834 96.35ZM246.931 97C246.865 97 246.808 96.98 246.761 96.94C246.721 96.8933 246.701 96.8367 246.701 96.77V90.13C246.701 90.0633 246.721 90.01 246.761 89.97C246.808 89.9233 246.865 89.9 246.931 89.9H247.401C247.475 89.9 247.531 89.9233 247.571 89.97C247.611 90.01 247.631 90.0633 247.631 90.13V96.77C247.631 96.8367 247.611 96.8933 247.571 96.94C247.531 96.98 247.475 97 247.401 97H246.931ZM254.224 97.1C253.611 97.1 253.101 96.9867 252.694 96.76C252.294 96.5333 251.991 96.2167 251.784 95.81C251.577 95.4033 251.464 94.93 251.444 94.39C251.437 94.1167 251.434 93.8233 251.434 93.51C251.434 93.1967 251.437 92.8967 251.444 92.61C251.464 92.07 251.577 91.5967 251.784 91.19C251.991 90.7833 252.294 90.4667 252.694 90.24C253.101 90.0133 253.611 89.9 254.224 89.9C254.684 89.9 255.087 89.9633 255.434 90.09C255.781 90.2167 256.067 90.3867 256.294 90.6C256.527 90.8133 256.704 91.0533 256.824 91.32C256.944 91.58 257.011 91.85 257.024 92.13C257.031 92.19 257.011 92.24 256.964 92.28C256.924 92.32 256.874 92.34 256.814 92.34H256.264C256.204 92.34 256.151 92.3233 256.104 92.29C256.064 92.2567 256.034 92.1967 256.014 92.11C255.901 91.59 255.687 91.2333 255.374 91.04C255.067 90.8467 254.681 90.75 254.214 90.75C253.681 90.75 253.257 90.9033 252.944 91.21C252.631 91.51 252.461 91.9933 252.434 92.66C252.414 93.2067 252.414 93.7667 252.434 94.34C252.461 95.0067 252.631 95.4933 252.944 95.8C253.257 96.1 253.681 96.25 254.214 96.25C254.681 96.25 255.067 96.1533 255.374 95.96C255.687 95.7667 255.901 95.41 256.014 94.89C256.034 94.8033 256.064 94.7433 256.104 94.71C256.151 94.6767 256.204 94.66 256.264 94.66H256.814C256.874 94.66 256.924 94.68 256.964 94.72C257.011 94.76 257.031 94.81 257.024 94.87C257.011 95.15 256.944 95.4233 256.824 95.69C256.704 95.95 256.527 96.1867 256.294 96.4C256.067 96.6133 255.781 96.7833 255.434 96.91C255.087 97.0367 254.684 97.1 254.224 97.1ZM258.474 97C258.407 97 258.351 96.98 258.304 96.94C258.264 96.8933 258.244 96.8367 258.244 96.77V90.13C258.244 90.0633 258.264 90.01 258.304 89.97C258.351 89.9233 258.407 89.9 258.474 89.9H258.944C259.017 89.9 259.074 89.9233 259.114 89.97C259.154 90.01 259.174 90.0633 259.174 90.13V96.77C259.174 96.8367 259.154 96.8933 259.114 96.94C259.074 96.98 259.017 97 258.944 97H258.474ZM262.116 97.1C261.782 97.1 261.479 97.0333 261.206 96.9C260.932 96.7667 260.712 96.5867 260.546 96.36C260.379 96.1333 260.296 95.8767 260.296 95.59C260.296 95.13 260.482 94.7633 260.856 94.49C261.229 94.2167 261.716 94.0367 262.316 93.95L263.806 93.74V93.45C263.806 93.13 263.712 92.88 263.526 92.7C263.346 92.52 263.049 92.43 262.636 92.43C262.336 92.43 262.092 92.49 261.906 92.61C261.726 92.73 261.599 92.8833 261.526 93.07C261.486 93.17 261.416 93.22 261.316 93.22H260.866C260.792 93.22 260.736 93.2 260.696 93.16C260.662 93.1133 260.646 93.06 260.646 93C260.646 92.9 260.682 92.7767 260.756 92.63C260.836 92.4833 260.956 92.34 261.116 92.2C261.276 92.06 261.479 91.9433 261.726 91.85C261.979 91.75 262.286 91.7 262.646 91.7C263.046 91.7 263.382 91.7533 263.656 91.86C263.929 91.96 264.142 92.0967 264.296 92.27C264.456 92.4433 264.569 92.64 264.636 92.86C264.709 93.08 264.746 93.3033 264.746 93.53V96.77C264.746 96.8367 264.722 96.8933 264.676 96.94C264.636 96.98 264.582 97 264.516 97H264.056C263.982 97 263.926 96.98 263.886 96.94C263.846 96.8933 263.826 96.8367 263.826 96.77V96.34C263.739 96.46 263.622 96.58 263.476 96.7C263.329 96.8133 263.146 96.91 262.926 96.99C262.706 97.0633 262.436 97.1 262.116 97.1ZM262.326 96.35C262.599 96.35 262.849 96.2933 263.076 96.18C263.302 96.06 263.479 95.8767 263.606 95.63C263.739 95.3833 263.806 95.0733 263.806 94.7V94.42L262.646 94.59C262.172 94.6567 261.816 94.77 261.576 94.93C261.336 95.0833 261.216 95.28 261.216 95.52C261.216 95.7067 261.269 95.8633 261.376 95.99C261.489 96.11 261.629 96.2 261.796 96.26C261.969 96.32 262.146 96.35 262.326 96.35ZM267.983 97.1C267.61 97.1 267.29 97.0533 267.023 96.96C266.757 96.8667 266.54 96.7533 266.373 96.62C266.207 96.4867 266.08 96.3533 265.993 96.22C265.913 96.0867 265.87 95.98 265.863 95.9C265.857 95.8267 265.88 95.77 265.933 95.73C265.987 95.69 266.04 95.67 266.093 95.67H266.533C266.573 95.67 266.603 95.6767 266.623 95.69C266.65 95.6967 266.683 95.7233 266.723 95.77C266.81 95.8633 266.907 95.9567 267.013 96.05C267.12 96.1433 267.25 96.22 267.403 96.28C267.563 96.34 267.76 96.37 267.993 96.37C268.333 96.37 268.613 96.3067 268.833 96.18C269.053 96.0467 269.163 95.8533 269.163 95.6C269.163 95.4333 269.117 95.3 269.023 95.2C268.937 95.1 268.777 95.01 268.543 94.93C268.317 94.85 268.003 94.7667 267.603 94.68C267.203 94.5867 266.887 94.4733 266.653 94.34C266.42 94.2 266.253 94.0367 266.153 93.85C266.053 93.6567 266.003 93.44 266.003 93.2C266.003 92.9533 266.077 92.7167 266.223 92.49C266.37 92.2567 266.583 92.0667 266.863 91.92C267.15 91.7733 267.507 91.7 267.933 91.7C268.28 91.7 268.577 91.7433 268.823 91.83C269.07 91.9167 269.273 92.0267 269.433 92.16C269.593 92.2867 269.713 92.4133 269.793 92.54C269.873 92.6667 269.917 92.7733 269.923 92.86C269.93 92.9267 269.91 92.9833 269.863 93.03C269.817 93.07 269.763 93.09 269.703 93.09H269.283C269.237 93.09 269.197 93.08 269.163 93.06C269.137 93.04 269.11 93.0167 269.083 92.99C269.017 92.9033 268.937 92.8167 268.843 92.73C268.757 92.6433 268.64 92.5733 268.493 92.52C268.353 92.46 268.167 92.43 267.933 92.43C267.6 92.43 267.35 92.5 267.183 92.64C267.017 92.78 266.933 92.9567 266.933 93.17C266.933 93.2967 266.97 93.41 267.043 93.51C267.117 93.61 267.257 93.7 267.463 93.78C267.67 93.86 267.977 93.9467 268.383 94.04C268.823 94.1267 269.17 94.2433 269.423 94.39C269.677 94.5367 269.857 94.7067 269.963 94.9C270.07 95.0933 270.123 95.3167 270.123 95.57C270.123 95.85 270.04 96.1067 269.873 96.34C269.713 96.5733 269.473 96.76 269.153 96.9C268.84 97.0333 268.45 97.1 267.983 97.1ZM273.081 97.1C272.708 97.1 272.388 97.0533 272.121 96.96C271.854 96.8667 271.638 96.7533 271.471 96.62C271.304 96.4867 271.178 96.3533 271.091 96.22C271.011 96.0867 270.968 95.98 270.961 95.9C270.954 95.8267 270.978 95.77 271.031 95.73C271.084 95.69 271.138 95.67 271.191 95.67H271.631C271.671 95.67 271.701 95.6767 271.721 95.69C271.748 95.6967 271.781 95.7233 271.821 95.77C271.908 95.8633 272.004 95.9567 272.111 96.05C272.218 96.1433 272.348 96.22 272.501 96.28C272.661 96.34 272.858 96.37 273.091 96.37C273.431 96.37 273.711 96.3067 273.931 96.18C274.151 96.0467 274.261 95.8533 274.261 95.6C274.261 95.4333 274.214 95.3 274.121 95.2C274.034 95.1 273.874 95.01 273.641 94.93C273.414 94.85 273.101 94.7667 272.701 94.68C272.301 94.5867 271.984 94.4733 271.751 94.34C271.518 94.2 271.351 94.0367 271.251 93.85C271.151 93.6567 271.101 93.44 271.101 93.2C271.101 92.9533 271.174 92.7167 271.321 92.49C271.468 92.2567 271.681 92.0667 271.961 91.92C272.248 91.7733 272.604 91.7 273.031 91.7C273.378 91.7 273.674 91.7433 273.921 91.83C274.168 91.9167 274.371 92.0267 274.531 92.16C274.691 92.2867 274.811 92.4133 274.891 92.54C274.971 92.6667 275.014 92.7733 275.021 92.86C275.028 92.9267 275.008 92.9833 274.961 93.03C274.914 93.07 274.861 93.09 274.801 93.09H274.381C274.334 93.09 274.294 93.08 274.261 93.06C274.234 93.04 274.208 93.0167 274.181 92.99C274.114 92.9033 274.034 92.8167 273.941 92.73C273.854 92.6433 273.738 92.5733 273.591 92.52C273.451 92.46 273.264 92.43 273.031 92.43C272.698 92.43 272.448 92.5 272.281 92.64C272.114 92.78 272.031 92.9567 272.031 93.17C272.031 93.2967 272.068 93.41 272.141 93.51C272.214 93.61 272.354 93.7 272.561 93.78C272.768 93.86 273.074 93.9467 273.481 94.04C273.921 94.1267 274.268 94.2433 274.521 94.39C274.774 94.5367 274.954 94.7067 275.061 94.9C275.168 95.0933 275.221 95.3167 275.221 95.57C275.221 95.85 275.138 96.1067 274.971 96.34C274.811 96.5733 274.571 96.76 274.251 96.9C273.938 97.0333 273.548 97.1 273.081 97.1ZM278.449 97.1C277.762 97.1 277.215 96.89 276.809 96.47C276.402 96.0433 276.179 95.4633 276.139 94.73C276.132 94.6433 276.129 94.5333 276.129 94.4C276.129 94.26 276.132 94.1467 276.139 94.06C276.165 93.5867 276.275 93.1733 276.469 92.82C276.662 92.46 276.925 92.1833 277.259 91.99C277.599 91.7967 277.995 91.7 278.449 91.7C278.955 91.7 279.379 91.8067 279.719 92.02C280.065 92.2333 280.329 92.5367 280.509 92.93C280.689 93.3233 280.779 93.7833 280.779 94.31V94.48C280.779 94.5533 280.755 94.61 280.709 94.65C280.669 94.69 280.615 94.71 280.549 94.71H277.089C277.089 94.7167 277.089 94.73 277.089 94.75C277.089 94.77 277.089 94.7867 277.089 94.8C277.102 95.0733 277.162 95.33 277.269 95.57C277.375 95.8033 277.529 95.9933 277.729 96.14C277.929 96.2867 278.169 96.36 278.449 96.36C278.689 96.36 278.889 96.3233 279.049 96.25C279.209 96.1767 279.339 96.0967 279.439 96.01C279.539 95.9167 279.605 95.8467 279.639 95.8C279.699 95.7133 279.745 95.6633 279.779 95.65C279.812 95.63 279.865 95.62 279.939 95.62H280.419C280.485 95.62 280.539 95.64 280.579 95.68C280.625 95.7133 280.645 95.7633 280.639 95.83C280.632 95.93 280.579 96.0533 280.479 96.2C280.379 96.34 280.235 96.48 280.049 96.62C279.862 96.76 279.635 96.8767 279.369 96.97C279.102 97.0567 278.795 97.1 278.449 97.1ZM277.089 94.02H279.829V93.99C279.829 93.69 279.772 93.4233 279.659 93.19C279.552 92.9567 279.395 92.7733 279.189 92.64C278.982 92.5 278.735 92.43 278.449 92.43C278.162 92.43 277.915 92.5 277.709 92.64C277.509 92.7733 277.355 92.9567 277.249 93.19C277.142 93.4233 277.089 93.69 277.089 93.99V94.02ZM283.774 97.1C283.401 97.1 283.081 97.0533 282.814 96.96C282.548 96.8667 282.331 96.7533 282.164 96.62C281.998 96.4867 281.871 96.3533 281.784 96.22C281.704 96.0867 281.661 95.98 281.654 95.9C281.648 95.8267 281.671 95.77 281.724 95.73C281.778 95.69 281.831 95.67 281.884 95.67H282.324C282.364 95.67 282.394 95.6767 282.414 95.69C282.441 95.6967 282.474 95.7233 282.514 95.77C282.601 95.8633 282.698 95.9567 282.804 96.05C282.911 96.1433 283.041 96.22 283.194 96.28C283.354 96.34 283.551 96.37 283.784 96.37C284.124 96.37 284.404 96.3067 284.624 96.18C284.844 96.0467 284.954 95.8533 284.954 95.6C284.954 95.4333 284.908 95.3 284.814 95.2C284.728 95.1 284.568 95.01 284.334 94.93C284.108 94.85 283.794 94.7667 283.394 94.68C282.994 94.5867 282.678 94.4733 282.444 94.34C282.211 94.2 282.044 94.0367 281.944 93.85C281.844 93.6567 281.794 93.44 281.794 93.2C281.794 92.9533 281.868 92.7167 282.014 92.49C282.161 92.2567 282.374 92.0667 282.654 91.92C282.941 91.7733 283.298 91.7 283.724 91.7C284.071 91.7 284.368 91.7433 284.614 91.83C284.861 91.9167 285.064 92.0267 285.224 92.16C285.384 92.2867 285.504 92.4133 285.584 92.54C285.664 92.6667 285.708 92.7733 285.714 92.86C285.721 92.9267 285.701 92.9833 285.654 93.03C285.608 93.07 285.554 93.09 285.494 93.09H285.074C285.028 93.09 284.988 93.08 284.954 93.06C284.928 93.04 284.901 93.0167 284.874 92.99C284.808 92.9033 284.728 92.8167 284.634 92.73C284.548 92.6433 284.431 92.5733 284.284 92.52C284.144 92.46 283.958 92.43 283.724 92.43C283.391 92.43 283.141 92.5 282.974 92.64C282.808 92.78 282.724 92.9567 282.724 93.17C282.724 93.2967 282.761 93.41 282.834 93.51C282.908 93.61 283.048 93.7 283.254 93.78C283.461 93.86 283.768 93.9467 284.174 94.04C284.614 94.1267 284.961 94.2433 285.214 94.39C285.468 94.5367 285.648 94.7067 285.754 94.9C285.861 95.0933 285.914 95.3167 285.914 95.57C285.914 95.85 285.831 96.1067 285.664 96.34C285.504 96.5733 285.264 96.76 284.944 96.9C284.631 97.0333 284.241 97.1 283.774 97.1Z" fill="#1C2D40"/>
<path d="M227.1 116C227.027 116 226.97 115.98 226.93 115.94C226.89 115.893 226.87 115.837 226.87 115.77V109.24C226.87 109.167 226.89 109.11 226.93 109.07C226.97 109.023 227.027 109 227.1 109H229.64C230.133 109 230.56 109.08 230.92 109.24C231.287 109.4 231.57 109.64 231.77 109.96C231.97 110.273 232.07 110.667 232.07 111.14C232.07 111.613 231.97 112.007 231.77 112.32C231.57 112.633 231.287 112.87 230.92 113.03C230.56 113.19 230.133 113.27 229.64 113.27H227.87V115.77C227.87 115.837 227.847 115.893 227.8 115.94C227.76 115.98 227.703 116 227.63 116H227.1ZM227.86 112.43H229.59C230.083 112.43 230.453 112.32 230.7 112.1C230.947 111.88 231.07 111.56 231.07 111.14C231.07 110.727 230.95 110.407 230.71 110.18C230.47 109.953 230.097 109.84 229.59 109.84H227.86V112.43ZM233.386 116C233.319 116 233.263 115.98 233.216 115.94C233.176 115.893 233.156 115.837 233.156 115.77V111.04C233.156 110.973 233.176 110.917 233.216 110.87C233.263 110.823 233.319 110.8 233.386 110.8H233.846C233.913 110.8 233.969 110.823 234.016 110.87C234.063 110.917 234.086 110.973 234.086 111.04V111.48C234.219 111.253 234.403 111.083 234.636 110.97C234.869 110.857 235.149 110.8 235.476 110.8H235.876C235.943 110.8 235.996 110.823 236.036 110.87C236.076 110.91 236.096 110.963 236.096 111.03V111.44C236.096 111.507 236.076 111.56 236.036 111.6C235.996 111.64 235.943 111.66 235.876 111.66H235.276C234.916 111.66 234.633 111.767 234.426 111.98C234.219 112.187 234.116 112.47 234.116 112.83V115.77C234.116 115.837 234.093 115.893 234.046 115.94C233.999 115.98 233.943 116 233.876 116H233.386ZM238.927 116.1C238.241 116.1 237.694 115.89 237.287 115.47C236.881 115.043 236.657 114.463 236.617 113.73C236.611 113.643 236.607 113.533 236.607 113.4C236.607 113.26 236.611 113.147 236.617 113.06C236.644 112.587 236.754 112.173 236.947 111.82C237.141 111.46 237.404 111.183 237.737 110.99C238.077 110.797 238.474 110.7 238.927 110.7C239.434 110.7 239.857 110.807 240.197 111.02C240.544 111.233 240.807 111.537 240.987 111.93C241.167 112.323 241.257 112.783 241.257 113.31V113.48C241.257 113.553 241.234 113.61 241.187 113.65C241.147 113.69 241.094 113.71 241.027 113.71H237.567C237.567 113.717 237.567 113.73 237.567 113.75C237.567 113.77 237.567 113.787 237.567 113.8C237.581 114.073 237.641 114.33 237.747 114.57C237.854 114.803 238.007 114.993 238.207 115.14C238.407 115.287 238.647 115.36 238.927 115.36C239.167 115.36 239.367 115.323 239.527 115.25C239.687 115.177 239.817 115.097 239.917 115.01C240.017 114.917 240.084 114.847 240.117 114.8C240.177 114.713 240.224 114.663 240.257 114.65C240.291 114.63 240.344 114.62 240.417 114.62H240.897C240.964 114.62 241.017 114.64 241.057 114.68C241.104 114.713 241.124 114.763 241.117 114.83C241.111 114.93 241.057 115.053 240.957 115.2C240.857 115.34 240.714 115.48 240.527 115.62C240.341 115.76 240.114 115.877 239.847 115.97C239.581 116.057 239.274 116.1 238.927 116.1ZM237.567 113.02H240.307V112.99C240.307 112.69 240.251 112.423 240.137 112.19C240.031 111.957 239.874 111.773 239.667 111.64C239.461 111.5 239.214 111.43 238.927 111.43C238.641 111.43 238.394 111.5 238.187 111.64C237.987 111.773 237.834 111.957 237.727 112.19C237.621 112.423 237.567 112.69 237.567 112.99V113.02ZM244.253 116.1C243.88 116.1 243.56 116.053 243.293 115.96C243.026 115.867 242.81 115.753 242.643 115.62C242.476 115.487 242.35 115.353 242.263 115.22C242.183 115.087 242.14 114.98 242.133 114.9C242.126 114.827 242.15 114.77 242.203 114.73C242.256 114.69 242.31 114.67 242.363 114.67H242.803C242.843 114.67 242.873 114.677 242.893 114.69C242.92 114.697 242.953 114.723 242.993 114.77C243.08 114.863 243.176 114.957 243.283 115.05C243.39 115.143 243.52 115.22 243.673 115.28C243.833 115.34 244.03 115.37 244.263 115.37C244.603 115.37 244.883 115.307 245.103 115.18C245.323 115.047 245.433 114.853 245.433 114.6C245.433 114.433 245.386 114.3 245.293 114.2C245.206 114.1 245.046 114.01 244.813 113.93C244.586 113.85 244.273 113.767 243.873 113.68C243.473 113.587 243.156 113.473 242.923 113.34C242.69 113.2 242.523 113.037 242.423 112.85C242.323 112.657 242.273 112.44 242.273 112.2C242.273 111.953 242.346 111.717 242.493 111.49C242.64 111.257 242.853 111.067 243.133 110.92C243.42 110.773 243.776 110.7 244.203 110.7C244.55 110.7 244.846 110.743 245.093 110.83C245.34 110.917 245.543 111.027 245.703 111.16C245.863 111.287 245.983 111.413 246.063 111.54C246.143 111.667 246.186 111.773 246.193 111.86C246.2 111.927 246.18 111.983 246.133 112.03C246.086 112.07 246.033 112.09 245.973 112.09H245.553C245.506 112.09 245.466 112.08 245.433 112.06C245.406 112.04 245.38 112.017 245.353 111.99C245.286 111.903 245.206 111.817 245.113 111.73C245.026 111.643 244.91 111.573 244.763 111.52C244.623 111.46 244.436 111.43 244.203 111.43C243.87 111.43 243.62 111.5 243.453 111.64C243.286 111.78 243.203 111.957 243.203 112.17C243.203 112.297 243.24 112.41 243.313 112.51C243.386 112.61 243.526 112.7 243.733 112.78C243.94 112.86 244.246 112.947 244.653 113.04C245.093 113.127 245.44 113.243 245.693 113.39C245.946 113.537 246.126 113.707 246.233 113.9C246.34 114.093 246.393 114.317 246.393 114.57C246.393 114.85 246.31 115.107 246.143 115.34C245.983 115.573 245.743 115.76 245.423 115.9C245.11 116.033 244.72 116.1 244.253 116.1ZM249.621 116.1C248.934 116.1 248.387 115.89 247.981 115.47C247.574 115.043 247.351 114.463 247.311 113.73C247.304 113.643 247.301 113.533 247.301 113.4C247.301 113.26 247.304 113.147 247.311 113.06C247.337 112.587 247.447 112.173 247.641 111.82C247.834 111.46 248.097 111.183 248.431 110.99C248.771 110.797 249.167 110.7 249.621 110.7C250.127 110.7 250.551 110.807 250.891 111.02C251.237 111.233 251.501 111.537 251.681 111.93C251.861 112.323 251.951 112.783 251.951 113.31V113.48C251.951 113.553 251.927 113.61 251.881 113.65C251.841 113.69 251.787 113.71 251.721 113.71H248.261C248.261 113.717 248.261 113.73 248.261 113.75C248.261 113.77 248.261 113.787 248.261 113.8C248.274 114.073 248.334 114.33 248.441 114.57C248.547 114.803 248.701 114.993 248.901 115.14C249.101 115.287 249.341 115.36 249.621 115.36C249.861 115.36 250.061 115.323 250.221 115.25C250.381 115.177 250.511 115.097 250.611 115.01C250.711 114.917 250.777 114.847 250.811 114.8C250.871 114.713 250.917 114.663 250.951 114.65C250.984 114.63 251.037 114.62 251.111 114.62H251.591C251.657 114.62 251.711 114.64 251.751 114.68C251.797 114.713 251.817 114.763 251.811 114.83C251.804 114.93 251.751 115.053 251.651 115.2C251.551 115.34 251.407 115.48 251.221 115.62C251.034 115.76 250.807 115.877 250.541 115.97C250.274 116.057 249.967 116.1 249.621 116.1ZM248.261 113.02H251.001V112.99C251.001 112.69 250.944 112.423 250.831 112.19C250.724 111.957 250.567 111.773 250.361 111.64C250.154 111.5 249.907 111.43 249.621 111.43C249.334 111.43 249.087 111.5 248.881 111.64C248.681 111.773 248.527 111.957 248.421 112.19C248.314 112.423 248.261 112.69 248.261 112.99V113.02ZM253.376 116C253.31 116 253.253 115.98 253.206 115.94C253.166 115.893 253.146 115.837 253.146 115.77V111.03C253.146 110.963 253.166 110.91 253.206 110.87C253.253 110.823 253.31 110.8 253.376 110.8H253.846C253.913 110.8 253.966 110.823 254.006 110.87C254.053 110.91 254.076 110.963 254.076 111.03V111.47C254.25 111.243 254.466 111.06 254.726 110.92C254.993 110.773 255.333 110.7 255.746 110.7C256.18 110.7 256.546 110.797 256.846 110.99C257.153 111.177 257.383 111.44 257.536 111.78C257.69 112.113 257.766 112.503 257.766 112.95V115.77C257.766 115.837 257.746 115.893 257.706 115.94C257.666 115.98 257.613 116 257.546 116H257.046C256.98 116 256.923 115.98 256.876 115.94C256.836 115.893 256.816 115.837 256.816 115.77V113C256.816 112.533 256.703 112.17 256.476 111.91C256.25 111.643 255.916 111.51 255.476 111.51C255.063 111.51 254.73 111.643 254.476 111.91C254.23 112.17 254.106 112.533 254.106 113V115.77C254.106 115.837 254.083 115.893 254.036 115.94C253.996 115.98 253.943 116 253.876 116H253.376ZM261.172 116C260.799 116 260.496 115.93 260.262 115.79C260.029 115.643 259.859 115.44 259.752 115.18C259.646 114.913 259.592 114.6 259.592 114.24V111.6H258.812C258.746 111.6 258.689 111.58 258.642 111.54C258.602 111.493 258.582 111.437 258.582 111.37V111.03C258.582 110.963 258.602 110.91 258.642 110.87C258.689 110.823 258.746 110.8 258.812 110.8H259.592V109.13C259.592 109.063 259.612 109.01 259.652 108.97C259.699 108.923 259.756 108.9 259.822 108.9H260.292C260.359 108.9 260.412 108.923 260.452 108.97C260.499 109.01 260.522 109.063 260.522 109.13V110.8H261.762C261.829 110.8 261.882 110.823 261.922 110.87C261.969 110.91 261.992 110.963 261.992 111.03V111.37C261.992 111.437 261.969 111.493 261.922 111.54C261.882 111.58 261.829 111.6 261.762 111.6H260.522V114.17C260.522 114.483 260.576 114.73 260.682 114.91C260.789 115.09 260.979 115.18 261.252 115.18H261.862C261.929 115.18 261.982 115.203 262.022 115.25C262.069 115.29 262.092 115.343 262.092 115.41V115.77C262.092 115.837 262.069 115.893 262.022 115.94C261.982 115.98 261.929 116 261.862 116H261.172ZM267.4 116.1C267.033 116.1 266.716 116.037 266.45 115.91C266.183 115.777 265.963 115.6 265.79 115.38C265.623 115.153 265.496 114.897 265.41 114.61C265.33 114.323 265.283 114.02 265.27 113.7C265.263 113.593 265.26 113.493 265.26 113.4C265.26 113.307 265.263 113.207 265.27 113.1C265.283 112.787 265.33 112.487 265.41 112.2C265.496 111.913 265.623 111.657 265.79 111.43C265.963 111.203 266.183 111.027 266.45 110.9C266.716 110.767 267.033 110.7 267.4 110.7C267.793 110.7 268.12 110.77 268.38 110.91C268.64 111.05 268.853 111.223 269.02 111.43V109.13C269.02 109.063 269.04 109.01 269.08 108.97C269.126 108.923 269.183 108.9 269.25 108.9H269.73C269.796 108.9 269.85 108.923 269.89 108.97C269.936 109.01 269.96 109.063 269.96 109.13V115.77C269.96 115.837 269.936 115.893 269.89 115.94C269.85 115.98 269.796 116 269.73 116H269.28C269.206 116 269.15 115.98 269.11 115.94C269.07 115.893 269.05 115.837 269.05 115.77V115.35C268.883 115.563 268.666 115.743 268.4 115.89C268.133 116.03 267.8 116.1 267.4 116.1ZM267.61 115.29C267.943 115.29 268.21 115.213 268.41 115.06C268.61 114.907 268.76 114.713 268.86 114.48C268.96 114.24 269.013 113.997 269.02 113.75C269.026 113.643 269.03 113.517 269.03 113.37C269.03 113.217 269.026 113.087 269.02 112.98C269.013 112.747 268.956 112.517 268.85 112.29C268.75 112.063 268.596 111.877 268.39 111.73C268.19 111.583 267.93 111.51 267.61 111.51C267.27 111.51 267 111.587 266.8 111.74C266.6 111.887 266.456 112.083 266.37 112.33C266.283 112.57 266.233 112.83 266.22 113.11C266.213 113.303 266.213 113.497 266.22 113.69C266.233 113.97 266.283 114.233 266.37 114.48C266.456 114.72 266.6 114.917 266.8 115.07C267 115.217 267.27 115.29 267.61 115.29ZM272.897 116.1C272.564 116.1 272.26 116.033 271.987 115.9C271.714 115.767 271.494 115.587 271.327 115.36C271.16 115.133 271.077 114.877 271.077 114.59C271.077 114.13 271.264 113.763 271.637 113.49C272.01 113.217 272.497 113.037 273.097 112.95L274.587 112.74V112.45C274.587 112.13 274.494 111.88 274.307 111.7C274.127 111.52 273.83 111.43 273.417 111.43C273.117 111.43 272.874 111.49 272.687 111.61C272.507 111.73 272.38 111.883 272.307 112.07C272.267 112.17 272.197 112.22 272.097 112.22H271.647C271.574 112.22 271.517 112.2 271.477 112.16C271.444 112.113 271.427 112.06 271.427 112C271.427 111.9 271.464 111.777 271.537 111.63C271.617 111.483 271.737 111.34 271.897 111.2C272.057 111.06 272.26 110.943 272.507 110.85C272.76 110.75 273.067 110.7 273.427 110.7C273.827 110.7 274.164 110.753 274.437 110.86C274.71 110.96 274.924 111.097 275.077 111.27C275.237 111.443 275.35 111.64 275.417 111.86C275.49 112.08 275.527 112.303 275.527 112.53V115.77C275.527 115.837 275.504 115.893 275.457 115.94C275.417 115.98 275.364 116 275.297 116H274.837C274.764 116 274.707 115.98 274.667 115.94C274.627 115.893 274.607 115.837 274.607 115.77V115.34C274.52 115.46 274.404 115.58 274.257 115.7C274.11 115.813 273.927 115.91 273.707 115.99C273.487 116.063 273.217 116.1 272.897 116.1ZM273.107 115.35C273.38 115.35 273.63 115.293 273.857 115.18C274.084 115.06 274.26 114.877 274.387 114.63C274.52 114.383 274.587 114.073 274.587 113.7V113.42L273.427 113.59C272.954 113.657 272.597 113.77 272.357 113.93C272.117 114.083 271.997 114.28 271.997 114.52C271.997 114.707 272.05 114.863 272.157 114.99C272.27 115.11 272.41 115.2 272.577 115.26C272.75 115.32 272.927 115.35 273.107 115.35ZM277.767 117.9C277.714 117.9 277.667 117.88 277.627 117.84C277.587 117.8 277.567 117.753 277.567 117.7C277.567 117.673 277.571 117.647 277.577 117.62C277.584 117.593 277.597 117.56 277.617 117.52L278.387 115.69L276.477 111.18C276.444 111.1 276.427 111.043 276.427 111.01C276.427 110.95 276.447 110.9 276.487 110.86C276.527 110.82 276.577 110.8 276.637 110.8H277.127C277.194 110.8 277.247 110.817 277.287 110.85C277.327 110.883 277.354 110.923 277.367 110.97L278.887 114.61L280.447 110.97C280.467 110.923 280.494 110.883 280.527 110.85C280.567 110.817 280.624 110.8 280.697 110.8H281.167C281.227 110.8 281.277 110.82 281.317 110.86C281.357 110.9 281.377 110.947 281.377 111C281.377 111.033 281.361 111.093 281.327 111.18L278.487 117.73C278.467 117.777 278.437 117.817 278.397 117.85C278.364 117.883 278.311 117.9 278.237 117.9H277.767ZM284.009 116.1C283.635 116.1 283.315 116.053 283.049 115.96C282.782 115.867 282.565 115.753 282.399 115.62C282.232 115.487 282.105 115.353 282.019 115.22C281.939 115.087 281.895 114.98 281.889 114.9C281.882 114.827 281.905 114.77 281.959 114.73C282.012 114.69 282.065 114.67 282.119 114.67H282.559C282.599 114.67 282.629 114.677 282.649 114.69C282.675 114.697 282.709 114.723 282.749 114.77C282.835 114.863 282.932 114.957 283.039 115.05C283.145 115.143 283.275 115.22 283.429 115.28C283.589 115.34 283.785 115.37 284.019 115.37C284.359 115.37 284.639 115.307 284.859 115.18C285.079 115.047 285.189 114.853 285.189 114.6C285.189 114.433 285.142 114.3 285.049 114.2C284.962 114.1 284.802 114.01 284.569 113.93C284.342 113.85 284.029 113.767 283.629 113.68C283.229 113.587 282.912 113.473 282.679 113.34C282.445 113.2 282.279 113.037 282.179 112.85C282.079 112.657 282.029 112.44 282.029 112.2C282.029 111.953 282.102 111.717 282.249 111.49C282.395 111.257 282.609 111.067 282.889 110.92C283.175 110.773 283.532 110.7 283.959 110.7C284.305 110.7 284.602 110.743 284.849 110.83C285.095 110.917 285.299 111.027 285.459 111.16C285.619 111.287 285.739 111.413 285.819 111.54C285.899 111.667 285.942 111.773 285.949 111.86C285.955 111.927 285.935 111.983 285.889 112.03C285.842 112.07 285.789 112.09 285.729 112.09H285.309C285.262 112.09 285.222 112.08 285.189 112.06C285.162 112.04 285.135 112.017 285.109 111.99C285.042 111.903 284.962 111.817 284.869 111.73C284.782 111.643 284.665 111.573 284.519 111.52C284.379 111.46 284.192 111.43 283.959 111.43C283.625 111.43 283.375 111.5 283.209 111.64C283.042 111.78 282.959 111.957 282.959 112.17C282.959 112.297 282.995 112.41 283.069 112.51C283.142 112.61 283.282 112.7 283.489 112.78C283.695 112.86 284.002 112.947 284.409 113.04C284.849 113.127 285.195 113.243 285.449 113.39C285.702 113.537 285.882 113.707 285.989 113.9C286.095 114.093 286.149 114.317 286.149 114.57C286.149 114.85 286.065 115.107 285.899 115.34C285.739 115.573 285.499 115.76 285.179 115.9C284.865 116.033 284.475 116.1 284.009 116.1Z" fill="#1C2D40"/>
<path d="M226.4 135C226.347 135 226.3 134.98 226.26 134.94C226.22 134.9 226.2 134.853 226.2 134.8C226.2 134.767 226.203 134.73 226.21 134.69L228.69 128.22C228.717 128.153 228.753 128.1 228.8 128.06C228.847 128.02 228.917 128 229.01 128H229.69C229.777 128 229.843 128.02 229.89 128.06C229.943 128.1 229.983 128.153 230.01 128.22L232.48 134.69C232.493 134.73 232.5 134.767 232.5 134.8C232.5 134.853 232.48 134.9 232.44 134.94C232.4 134.98 232.353 135 232.3 135H231.79C231.71 135 231.65 134.98 231.61 134.94C231.577 134.9 231.553 134.863 231.54 134.83L230.99 133.41H227.71L227.16 134.83C227.153 134.863 227.13 134.9 227.09 134.94C227.05 134.98 226.99 135 226.91 135H226.4ZM228 132.55H230.7L229.35 129L228 132.55ZM236.009 135.1C235.609 135.1 235.276 135.03 235.009 134.89C234.743 134.743 234.529 134.563 234.369 134.35V134.77C234.369 134.837 234.346 134.893 234.299 134.94C234.259 134.98 234.206 135 234.139 135H233.679C233.613 135 233.556 134.98 233.509 134.94C233.469 134.893 233.449 134.837 233.449 134.77V128.13C233.449 128.063 233.469 128.01 233.509 127.97C233.556 127.923 233.613 127.9 233.679 127.9H234.159C234.233 127.9 234.289 127.923 234.329 127.97C234.369 128.01 234.389 128.063 234.389 128.13V130.43C234.556 130.223 234.769 130.05 235.029 129.91C235.296 129.77 235.623 129.7 236.009 129.7C236.383 129.7 236.699 129.767 236.959 129.9C237.226 130.027 237.443 130.203 237.609 130.43C237.783 130.657 237.913 130.913 237.999 131.2C238.086 131.487 238.133 131.787 238.139 132.1C238.146 132.207 238.149 132.307 238.149 132.4C238.149 132.493 238.146 132.593 238.139 132.7C238.133 133.02 238.086 133.323 237.999 133.61C237.913 133.897 237.783 134.153 237.609 134.38C237.443 134.6 237.226 134.777 236.959 134.91C236.699 135.037 236.383 135.1 236.009 135.1ZM235.799 134.29C236.146 134.29 236.416 134.217 236.609 134.07C236.809 133.917 236.953 133.72 237.039 133.48C237.126 133.233 237.176 132.97 237.189 132.69C237.196 132.497 237.196 132.303 237.189 132.11C237.176 131.83 237.126 131.57 237.039 131.33C236.953 131.083 236.809 130.887 236.609 130.74C236.416 130.587 236.146 130.51 235.799 130.51C235.486 130.51 235.226 130.583 235.019 130.73C234.813 130.877 234.656 131.063 234.549 131.29C234.449 131.517 234.396 131.747 234.389 131.98C234.383 132.087 234.379 132.217 234.379 132.37C234.379 132.517 234.383 132.643 234.389 132.75C234.403 132.997 234.456 133.24 234.549 133.48C234.649 133.713 234.799 133.907 234.999 134.06C235.206 134.213 235.473 134.29 235.799 134.29ZM241.186 135.1C240.813 135.1 240.493 135.053 240.226 134.96C239.96 134.867 239.743 134.753 239.576 134.62C239.41 134.487 239.283 134.353 239.196 134.22C239.116 134.087 239.073 133.98 239.066 133.9C239.06 133.827 239.083 133.77 239.136 133.73C239.19 133.69 239.243 133.67 239.296 133.67H239.736C239.776 133.67 239.806 133.677 239.826 133.69C239.853 133.697 239.886 133.723 239.926 133.77C240.013 133.863 240.11 133.957 240.216 134.05C240.323 134.143 240.453 134.22 240.606 134.28C240.766 134.34 240.963 134.37 241.196 134.37C241.536 134.37 241.816 134.307 242.036 134.18C242.256 134.047 242.366 133.853 242.366 133.6C242.366 133.433 242.32 133.3 242.226 133.2C242.14 133.1 241.98 133.01 241.746 132.93C241.52 132.85 241.206 132.767 240.806 132.68C240.406 132.587 240.09 132.473 239.856 132.34C239.623 132.2 239.456 132.037 239.356 131.85C239.256 131.657 239.206 131.44 239.206 131.2C239.206 130.953 239.28 130.717 239.426 130.49C239.573 130.257 239.786 130.067 240.066 129.92C240.353 129.773 240.71 129.7 241.136 129.7C241.483 129.7 241.78 129.743 242.026 129.83C242.273 129.917 242.476 130.027 242.636 130.16C242.796 130.287 242.916 130.413 242.996 130.54C243.076 130.667 243.12 130.773 243.126 130.86C243.133 130.927 243.113 130.983 243.066 131.03C243.02 131.07 242.966 131.09 242.906 131.09H242.486C242.44 131.09 242.4 131.08 242.366 131.06C242.34 131.04 242.313 131.017 242.286 130.99C242.22 130.903 242.14 130.817 242.046 130.73C241.96 130.643 241.843 130.573 241.696 130.52C241.556 130.46 241.37 130.43 241.136 130.43C240.803 130.43 240.553 130.5 240.386 130.64C240.22 130.78 240.136 130.957 240.136 131.17C240.136 131.297 240.173 131.41 240.246 131.51C240.32 131.61 240.46 131.7 240.666 131.78C240.873 131.86 241.18 131.947 241.586 132.04C242.026 132.127 242.373 132.243 242.626 132.39C242.88 132.537 243.06 132.707 243.166 132.9C243.273 133.093 243.326 133.317 243.326 133.57C243.326 133.85 243.243 134.107 243.076 134.34C242.916 134.573 242.676 134.76 242.356 134.9C242.043 135.033 241.653 135.1 241.186 135.1ZM246.554 135.1C245.867 135.1 245.321 134.89 244.914 134.47C244.507 134.043 244.284 133.463 244.244 132.73C244.237 132.643 244.234 132.533 244.234 132.4C244.234 132.26 244.237 132.147 244.244 132.06C244.271 131.587 244.381 131.173 244.574 130.82C244.767 130.46 245.031 130.183 245.364 129.99C245.704 129.797 246.101 129.7 246.554 129.7C247.061 129.7 247.484 129.807 247.824 130.02C248.171 130.233 248.434 130.537 248.614 130.93C248.794 131.323 248.884 131.783 248.884 132.31V132.48C248.884 132.553 248.861 132.61 248.814 132.65C248.774 132.69 248.721 132.71 248.654 132.71H245.194C245.194 132.717 245.194 132.73 245.194 132.75C245.194 132.77 245.194 132.787 245.194 132.8C245.207 133.073 245.267 133.33 245.374 133.57C245.481 133.803 245.634 133.993 245.834 134.14C246.034 134.287 246.274 134.36 246.554 134.36C246.794 134.36 246.994 134.323 247.154 134.25C247.314 134.177 247.444 134.097 247.544 134.01C247.644 133.917 247.711 133.847 247.744 133.8C247.804 133.713 247.851 133.663 247.884 133.65C247.917 133.63 247.971 133.62 248.044 133.62H248.524C248.591 133.62 248.644 133.64 248.684 133.68C248.731 133.713 248.751 133.763 248.744 133.83C248.737 133.93 248.684 134.053 248.584 134.2C248.484 134.34 248.341 134.48 248.154 134.62C247.967 134.76 247.741 134.877 247.474 134.97C247.207 135.057 246.901 135.1 246.554 135.1ZM245.194 132.02H247.934V131.99C247.934 131.69 247.877 131.423 247.764 131.19C247.657 130.957 247.501 130.773 247.294 130.64C247.087 130.5 246.841 130.43 246.554 130.43C246.267 130.43 246.021 130.5 245.814 130.64C245.614 130.773 245.461 130.957 245.354 131.19C245.247 131.423 245.194 131.69 245.194 131.99V132.02ZM250.31 135C250.243 135 250.187 134.98 250.14 134.94C250.1 134.893 250.08 134.837 250.08 134.77V130.03C250.08 129.963 250.1 129.91 250.14 129.87C250.187 129.823 250.243 129.8 250.31 129.8H250.78C250.847 129.8 250.9 129.823 250.94 129.87C250.987 129.91 251.01 129.963 251.01 130.03V130.47C251.183 130.243 251.4 130.06 251.66 129.92C251.927 129.773 252.267 129.7 252.68 129.7C253.113 129.7 253.48 129.797 253.78 129.99C254.087 130.177 254.317 130.44 254.47 130.78C254.623 131.113 254.7 131.503 254.7 131.95V134.77C254.7 134.837 254.68 134.893 254.64 134.94C254.6 134.98 254.547 135 254.48 135H253.98C253.913 135 253.857 134.98 253.81 134.94C253.77 134.893 253.75 134.837 253.75 134.77V132C253.75 131.533 253.637 131.17 253.41 130.91C253.183 130.643 252.85 130.51 252.41 130.51C251.997 130.51 251.663 130.643 251.41 130.91C251.163 131.17 251.04 131.533 251.04 132V134.77C251.04 134.837 251.017 134.893 250.97 134.94C250.93 134.98 250.877 135 250.81 135H250.31ZM258.106 135C257.733 135 257.429 134.93 257.196 134.79C256.963 134.643 256.793 134.44 256.686 134.18C256.579 133.913 256.526 133.6 256.526 133.24V130.6H255.746C255.679 130.6 255.623 130.58 255.576 130.54C255.536 130.493 255.516 130.437 255.516 130.37V130.03C255.516 129.963 255.536 129.91 255.576 129.87C255.623 129.823 255.679 129.8 255.746 129.8H256.526V128.13C256.526 128.063 256.546 128.01 256.586 127.97C256.633 127.923 256.689 127.9 256.756 127.9H257.226C257.293 127.9 257.346 127.923 257.386 127.97C257.433 128.01 257.456 128.063 257.456 128.13V129.8H258.696C258.763 129.8 258.816 129.823 258.856 129.87C258.903 129.91 258.926 129.963 258.926 130.03V130.37C258.926 130.437 258.903 130.493 258.856 130.54C258.816 130.58 258.763 130.6 258.696 130.6H257.456V133.17C257.456 133.483 257.509 133.73 257.616 133.91C257.723 134.09 257.913 134.18 258.186 134.18H258.796C258.863 134.18 258.916 134.203 258.956 134.25C259.003 134.29 259.026 134.343 259.026 134.41V134.77C259.026 134.837 259.003 134.893 258.956 134.94C258.916 134.98 258.863 135 258.796 135H258.106ZM264.333 135.1C263.967 135.1 263.65 135.037 263.383 134.91C263.117 134.777 262.897 134.6 262.723 134.38C262.557 134.153 262.43 133.897 262.343 133.61C262.263 133.323 262.217 133.02 262.203 132.7C262.197 132.593 262.193 132.493 262.193 132.4C262.193 132.307 262.197 132.207 262.203 132.1C262.217 131.787 262.263 131.487 262.343 131.2C262.43 130.913 262.557 130.657 262.723 130.43C262.897 130.203 263.117 130.027 263.383 129.9C263.65 129.767 263.967 129.7 264.333 129.7C264.727 129.7 265.053 129.77 265.313 129.91C265.573 130.05 265.787 130.223 265.953 130.43V128.13C265.953 128.063 265.973 128.01 266.013 127.97C266.06 127.923 266.117 127.9 266.183 127.9H266.663C266.73 127.9 266.783 127.923 266.823 127.97C266.87 128.01 266.893 128.063 266.893 128.13V134.77C266.893 134.837 266.87 134.893 266.823 134.94C266.783 134.98 266.73 135 266.663 135H266.213C266.14 135 266.083 134.98 266.043 134.94C266.003 134.893 265.983 134.837 265.983 134.77V134.35C265.817 134.563 265.6 134.743 265.333 134.89C265.067 135.03 264.733 135.1 264.333 135.1ZM264.543 134.29C264.877 134.29 265.143 134.213 265.343 134.06C265.543 133.907 265.693 133.713 265.793 133.48C265.893 133.24 265.947 132.997 265.953 132.75C265.96 132.643 265.963 132.517 265.963 132.37C265.963 132.217 265.96 132.087 265.953 131.98C265.947 131.747 265.89 131.517 265.783 131.29C265.683 131.063 265.53 130.877 265.323 130.73C265.123 130.583 264.863 130.51 264.543 130.51C264.203 130.51 263.933 130.587 263.733 130.74C263.533 130.887 263.39 131.083 263.303 131.33C263.217 131.57 263.167 131.83 263.153 132.11C263.147 132.303 263.147 132.497 263.153 132.69C263.167 132.97 263.217 133.233 263.303 133.48C263.39 133.72 263.533 133.917 263.733 134.07C263.933 134.217 264.203 134.29 264.543 134.29ZM269.831 135.1C269.497 135.1 269.194 135.033 268.921 134.9C268.647 134.767 268.427 134.587 268.261 134.36C268.094 134.133 268.011 133.877 268.011 133.59C268.011 133.13 268.197 132.763 268.571 132.49C268.944 132.217 269.431 132.037 270.031 131.95L271.521 131.74V131.45C271.521 131.13 271.427 130.88 271.241 130.7C271.061 130.52 270.764 130.43 270.351 130.43C270.051 130.43 269.807 130.49 269.621 130.61C269.441 130.73 269.314 130.883 269.241 131.07C269.201 131.17 269.131 131.22 269.031 131.22H268.581C268.507 131.22 268.451 131.2 268.411 131.16C268.377 131.113 268.361 131.06 268.361 131C268.361 130.9 268.397 130.777 268.471 130.63C268.551 130.483 268.671 130.34 268.831 130.2C268.991 130.06 269.194 129.943 269.441 129.85C269.694 129.75 270.001 129.7 270.361 129.7C270.761 129.7 271.097 129.753 271.371 129.86C271.644 129.96 271.857 130.097 272.011 130.27C272.171 130.443 272.284 130.64 272.351 130.86C272.424 131.08 272.461 131.303 272.461 131.53V134.77C272.461 134.837 272.437 134.893 272.391 134.94C272.351 134.98 272.297 135 272.231 135H271.771C271.697 135 271.641 134.98 271.601 134.94C271.561 134.893 271.541 134.837 271.541 134.77V134.34C271.454 134.46 271.337 134.58 271.191 134.7C271.044 134.813 270.861 134.91 270.641 134.99C270.421 135.063 270.151 135.1 269.831 135.1ZM270.041 134.35C270.314 134.35 270.564 134.293 270.791 134.18C271.017 134.06 271.194 133.877 271.321 133.63C271.454 133.383 271.521 133.073 271.521 132.7V132.42L270.361 132.59C269.887 132.657 269.531 132.77 269.291 132.93C269.051 133.083 268.931 133.28 268.931 133.52C268.931 133.707 268.984 133.863 269.091 133.99C269.204 134.11 269.344 134.2 269.511 134.26C269.684 134.32 269.861 134.35 270.041 134.35ZM274.701 136.9C274.647 136.9 274.601 136.88 274.561 136.84C274.521 136.8 274.501 136.753 274.501 136.7C274.501 136.673 274.504 136.647 274.511 136.62C274.517 136.593 274.531 136.56 274.551 136.52L275.321 134.69L273.411 130.18C273.377 130.1 273.361 130.043 273.361 130.01C273.361 129.95 273.381 129.9 273.421 129.86C273.461 129.82 273.511 129.8 273.571 129.8H274.061C274.127 129.8 274.181 129.817 274.221 129.85C274.261 129.883 274.287 129.923 274.301 129.97L275.821 133.61L277.381 129.97C277.401 129.923 277.427 129.883 277.461 129.85C277.501 129.817 277.557 129.8 277.631 129.8H278.101C278.161 129.8 278.211 129.82 278.251 129.86C278.291 129.9 278.311 129.947 278.311 130C278.311 130.033 278.294 130.093 278.261 130.18L275.421 136.73C275.401 136.777 275.371 136.817 275.331 136.85C275.297 136.883 275.244 136.9 275.171 136.9H274.701ZM280.942 135.1C280.569 135.1 280.249 135.053 279.982 134.96C279.716 134.867 279.499 134.753 279.332 134.62C279.166 134.487 279.039 134.353 278.952 134.22C278.872 134.087 278.829 133.98 278.822 133.9C278.816 133.827 278.839 133.77 278.892 133.73C278.946 133.69 278.999 133.67 279.052 133.67H279.492C279.532 133.67 279.562 133.677 279.582 133.69C279.609 133.697 279.642 133.723 279.682 133.77C279.769 133.863 279.866 133.957 279.972 134.05C280.079 134.143 280.209 134.22 280.362 134.28C280.522 134.34 280.719 134.37 280.952 134.37C281.292 134.37 281.572 134.307 281.792 134.18C282.012 134.047 282.122 133.853 282.122 133.6C282.122 133.433 282.076 133.3 281.982 133.2C281.896 133.1 281.736 133.01 281.502 132.93C281.276 132.85 280.962 132.767 280.562 132.68C280.162 132.587 279.846 132.473 279.612 132.34C279.379 132.2 279.212 132.037 279.112 131.85C279.012 131.657 278.962 131.44 278.962 131.2C278.962 130.953 279.036 130.717 279.182 130.49C279.329 130.257 279.542 130.067 279.822 129.92C280.109 129.773 280.466 129.7 280.892 129.7C281.239 129.7 281.536 129.743 281.782 129.83C282.029 129.917 282.232 130.027 282.392 130.16C282.552 130.287 282.672 130.413 282.752 130.54C282.832 130.667 282.876 130.773 282.882 130.86C282.889 130.927 282.869 130.983 282.822 131.03C282.776 131.07 282.722 131.09 282.662 131.09H282.242C282.196 131.09 282.156 131.08 282.122 131.06C282.096 131.04 282.069 131.017 282.042 130.99C281.976 130.903 281.896 130.817 281.802 130.73C281.716 130.643 281.599 130.573 281.452 130.52C281.312 130.46 281.126 130.43 280.892 130.43C280.559 130.43 280.309 130.5 280.142 130.64C279.976 130.78 279.892 130.957 279.892 131.17C279.892 131.297 279.929 131.41 280.002 131.51C280.076 131.61 280.216 131.7 280.422 131.78C280.629 131.86 280.936 131.947 281.342 132.04C281.782 132.127 282.129 132.243 282.382 132.39C282.636 132.537 282.816 132.707 282.922 132.9C283.029 133.093 283.082 133.317 283.082 133.57C283.082 133.85 282.999 134.107 282.832 134.34C282.672 134.573 282.432 134.76 282.112 134.9C281.799 135.033 281.409 135.1 280.942 135.1Z" fill="#1C2D40"/>
<path d="M334.76 97C334.693 97 334.637 96.98 334.59 96.94C334.55 96.8933 334.53 96.8367 334.53 96.77V91.17L332.87 92.45C332.817 92.49 332.76 92.5067 332.7 92.5C332.64 92.4933 332.59 92.4633 332.55 92.41L332.29 92.08C332.25 92.02 332.233 91.96 332.24 91.9C332.253 91.84 332.287 91.79 332.34 91.75L334.52 90.07C334.567 90.0367 334.61 90.0167 334.65 90.01C334.69 90.0033 334.733 90 334.78 90H335.29C335.357 90 335.41 90.0233 335.45 90.07C335.49 90.11 335.51 90.1633 335.51 90.23V96.77C335.51 96.8367 335.49 96.8933 335.45 96.94C335.41 96.98 335.357 97 335.29 97H334.76ZM339.257 97.1C338.837 97.1 338.471 97.05 338.157 96.95C337.844 96.8433 337.581 96.7033 337.367 96.53C337.154 96.3567 336.991 96.1667 336.877 95.96C336.771 95.7533 336.714 95.54 336.707 95.32C336.707 95.26 336.727 95.2133 336.767 95.18C336.807 95.1467 336.857 95.13 336.917 95.13H337.407C337.467 95.13 337.521 95.1433 337.567 95.17C337.614 95.1967 337.654 95.2533 337.687 95.34C337.754 95.58 337.867 95.7667 338.027 95.9C338.194 96.0333 338.384 96.1267 338.597 96.18C338.817 96.2267 339.037 96.25 339.257 96.25C339.717 96.25 340.091 96.14 340.377 95.92C340.664 95.7 340.807 95.3767 340.807 94.95C340.807 94.5167 340.677 94.2067 340.417 94.02C340.157 93.8333 339.797 93.74 339.337 93.74H338.387C338.321 93.74 338.264 93.72 338.217 93.68C338.177 93.64 338.157 93.5833 338.157 93.51V93.24C338.157 93.18 338.167 93.13 338.187 93.09C338.214 93.0433 338.241 93.0033 338.267 92.97L340.207 90.85H337.257C337.191 90.85 337.134 90.83 337.087 90.79C337.047 90.75 337.027 90.6933 337.027 90.62V90.24C337.027 90.1667 337.047 90.11 337.087 90.07C337.134 90.0233 337.191 90 337.257 90H341.247C341.321 90 341.377 90.0233 341.417 90.07C341.464 90.11 341.487 90.1667 341.487 90.24V90.6C341.487 90.6467 341.474 90.69 341.447 90.73C341.427 90.7633 341.404 90.7967 341.377 90.83L339.447 92.98L339.607 92.99C340.047 93.0033 340.431 93.0833 340.757 93.23C341.091 93.3767 341.347 93.5967 341.527 93.89C341.714 94.1767 341.807 94.54 341.807 94.98C341.807 95.4267 341.697 95.81 341.477 96.13C341.257 96.4433 340.954 96.6833 340.567 96.85C340.181 97.0167 339.744 97.1 339.257 97.1Z" fill="black"/>
<path d="M338.93 116C338.87 116 338.82 115.98 338.78 115.94C338.747 115.893 338.73 115.84 338.73 115.78C338.73 115.747 338.733 115.72 338.74 115.7C338.753 115.68 338.763 115.663 338.77 115.65L340.3 113.52C340.133 113.56 339.953 113.58 339.76 113.58C339.387 113.573 339.053 113.507 338.76 113.38C338.467 113.253 338.217 113.083 338.01 112.87C337.803 112.65 337.647 112.403 337.54 112.13C337.433 111.857 337.38 111.57 337.38 111.27C337.38 110.977 337.43 110.69 337.53 110.41C337.637 110.13 337.793 109.877 338 109.65C338.213 109.423 338.477 109.243 338.79 109.11C339.103 108.97 339.473 108.9 339.9 108.9C340.32 108.9 340.687 108.967 341 109.1C341.32 109.227 341.587 109.403 341.8 109.63C342.02 109.85 342.18 110.1 342.28 110.38C342.387 110.66 342.44 110.95 342.44 111.25C342.44 111.523 342.4 111.773 342.32 112C342.24 112.227 342.143 112.43 342.03 112.61C341.923 112.79 341.817 112.957 341.71 113.11L339.79 115.8C339.763 115.833 339.727 115.877 339.68 115.93C339.633 115.977 339.563 116 339.47 116H338.93ZM339.9 112.77C340.18 112.77 340.437 112.71 340.67 112.59C340.91 112.463 341.1 112.29 341.24 112.07C341.38 111.843 341.45 111.573 341.45 111.26C341.45 110.947 341.38 110.68 341.24 110.46C341.1 110.233 340.91 110.06 340.67 109.94C340.437 109.813 340.18 109.75 339.9 109.75C339.627 109.75 339.373 109.813 339.14 109.94C338.907 110.06 338.72 110.233 338.58 110.46C338.44 110.68 338.37 110.947 338.37 111.26C338.37 111.573 338.44 111.843 338.58 112.07C338.72 112.29 338.907 112.463 339.14 112.59C339.373 112.71 339.627 112.77 339.9 112.77Z" fill="black"/>
<path d="M342.01 135C341.943 135 341.887 134.98 341.84 134.94C341.8 134.893 341.78 134.837 341.78 134.77V133.33H338.54C338.473 133.33 338.417 133.31 338.37 133.27C338.33 133.223 338.31 133.167 338.31 133.1V132.7C338.31 132.673 338.317 132.633 338.33 132.58C338.35 132.52 338.38 132.46 338.42 132.4L341.42 128.17C341.5 128.057 341.623 128 341.79 128H342.51C342.577 128 342.63 128.023 342.67 128.07C342.717 128.11 342.74 128.163 342.74 128.23V132.46H343.64C343.713 132.46 343.77 132.483 343.81 132.53C343.857 132.57 343.88 132.623 343.88 132.69V133.1C343.88 133.167 343.857 133.223 343.81 133.27C343.77 133.31 343.717 133.33 343.65 133.33H342.74V134.77C342.74 134.837 342.717 134.893 342.67 134.94C342.63 134.98 342.577 135 342.51 135H342.01ZM339.38 132.48H341.79V129.05L339.38 132.48Z" fill="black"/>
<defs>
<filter id="filter0_bd_287_130" x="203.5" y="22.5" width="167" height="145" filterUnits="userSpaceOnUse" color-interpolation-filters="sRGB">
<feFlood flood-opacity="0" result="BackgroundImageFix"/>
<feGaussianBlur in="BackgroundImageFix" stdDeviation="2"/>
<feComposite in2="SourceAlpha" operator="in" result="effect1_backgroundBlur_287_130"/>
<feColorMatrix in="SourceAlpha" type="matrix" values="0 0 0 0 0 0 0 0 0 0 0 0 0 0 0 0 0 0 127 0" result="hardAlpha"/>
<feOffset dy="4"/>
<feGaussianBlur stdDeviation="2"/>
<feComposite in2="hardAlpha" operator="out"/>
<feColorMatrix type="matrix" values="0 0 0 0 0 0 0 0 0 0 0 0 0 0 0 0 0 0 0.25 0"/>
<feBlend mode="normal" in2="effect1_backgroundBlur_287_130" result="effect2_dropShadow_287_130"/>
<feBlend mode="normal" in="SourceGraphic" in2="effect2_dropShadow_287_130" result="shape"/>
</filter>
</defs>
</svg>
